<svg width="45" height="56" viewBox="0 0 45 56" fill="none" xmlns="http://www.w3.org/2000/svg">
<path fill-rule="evenodd" clip-rule="evenodd" d="M0.690551 55.3147H34.3979C34.722 55.3147 35.0461 54.9906 35.0461 54.6664V9.93936C35.0461 9.61525 34.722 9.29114 34.3979 9.29114H9.54954V9.93936V13.9367V15.8814C9.54954 16.9617 8.68525 17.826 7.60488 17.826H4.36379H0.690551H0.0423324V54.6664C0.0423324 54.9906 0.366442 55.3147 0.690551 55.3147ZM15.9237 41.7021H19.1648C19.813 41.7021 20.3532 41.1619 20.3532 40.5137V38.1369C21.0014 37.9208 21.6496 37.5967 22.2978 37.2726L24.0264 39.0012C24.2425 39.2172 24.5666 39.3253 24.7827 39.3253C25.1068 39.3253 25.4309 39.2172 25.647 39.0012L27.9157 36.6244C28.1318 36.4083 28.2398 36.1922 28.2398 35.8681C28.2398 35.544 28.1318 35.3279 27.9157 35.1118L26.2952 33.3833C26.6193 32.735 26.8354 32.0868 27.0514 31.3306H29.5363C30.0765 31.3306 30.6166 30.7904 30.6166 30.2502V26.9011C30.6166 26.3609 30.0765 25.8207 29.5363 25.8207H27.0514C26.8354 25.0645 26.6193 24.4162 26.2952 23.768L27.9157 22.1475C28.1318 21.9314 28.2398 21.6073 28.2398 21.2832C28.2398 20.9591 28.1318 20.743 27.9157 20.5269L25.647 18.1501C25.4309 17.9341 25.1068 17.826 24.7827 17.826C24.5666 17.826 24.2425 17.9341 24.0264 18.1501L22.2978 19.8787C21.6496 19.5546 21.0014 19.2305 20.3532 19.0144V16.6376C20.3532 15.9894 19.813 15.5573 19.1648 15.5573H15.9237C15.2755 15.5573 14.7353 15.9894 14.7353 16.6376V19.0144C14.0871 19.2305 13.4389 19.5546 12.7906 19.8787L11.0621 18.1501C10.846 17.9341 10.5219 17.826 10.3058 17.826C9.98169 17.826 9.65758 17.9341 9.4415 18.1501L7.17274 20.5269C6.74059 20.9591 6.74059 21.6073 7.17274 22.1475L8.79328 23.768C8.46918 24.4162 8.2531 25.0645 8.03703 25.8207H5.66023C5.01201 25.8207 4.47183 26.3609 4.47183 26.9011V30.2502C4.47183 30.7904 5.01201 31.3306 5.66023 31.3306H8.03703C8.2531 32.0868 8.46918 32.735 8.79328 33.3833L7.17274 35.1118C6.95667 35.3279 6.84863 35.544 6.84863 35.8681C6.84863 36.1922 6.95667 36.4083 7.17274 36.6244L9.4415 39.0012C9.65758 39.2172 9.98169 39.3253 10.3058 39.3253C10.5219 39.3253 10.846 39.2172 11.0621 39.0012L12.7906 37.2726C13.4389 37.5967 14.0871 37.9208 14.7353 38.1369V40.5137C14.7353 41.1619 15.2755 41.7021 15.9237 41.7021ZM4.79594 51.5334H30.2925C30.6166 51.5334 30.9408 51.2093 30.9408 50.8852C30.9408 50.5611 30.6166 50.237 30.2925 50.237H4.79594C4.47183 50.237 4.14772 50.5611 4.14772 50.8852C4.14772 51.2093 4.47183 51.5334 4.79594 51.5334ZM4.79594 48.5084H30.2925C30.6166 48.5084 30.9408 48.1843 30.9408 47.8602C30.9408 47.428 30.6166 47.2119 30.2925 47.2119H4.79594C4.47183 47.2119 4.14772 47.428 4.14772 47.8602C4.14772 48.1843 4.47183 48.5084 4.79594 48.5084ZM4.79594 45.4833H30.2925C30.6166 45.4833 30.9408 45.1592 30.9408 44.8351C30.9408 44.403 30.6166 44.1869 30.2925 44.1869H4.79594C4.47183 44.1869 4.14772 44.403 4.14772 44.8351C4.14772 45.1592 4.47183 45.4833 4.79594 45.4833ZM17.5442 34.5717C20.8934 34.5717 23.5943 31.8708 23.5943 28.6297C23.5943 25.2805 20.8934 22.5796 17.5442 22.5796C14.1951 22.5796 11.4942 25.2805 11.4942 28.6297C11.4942 31.8708 14.1951 34.5717 17.5442 34.5717ZM19.0567 40.4056H16.0317V37.5967C16.0317 37.2726 15.8157 37.0565 15.5996 36.9485C14.6273 36.7324 13.763 36.4083 13.0067 35.8681C12.7906 35.7601 12.3585 35.7601 12.1424 35.9761L10.3058 37.9208L8.14507 35.8681L10.0897 33.9234C10.3058 33.7074 10.4138 33.3833 10.1978 33.1672C9.65758 32.3029 9.33347 31.4386 9.11739 30.5743C9.11739 30.2502 8.79328 30.0341 8.46918 30.0341H5.76826V27.1172H8.46918C8.79328 27.1172 9.11739 26.9011 9.11739 26.577C9.33347 25.7127 9.65758 24.8484 10.1978 23.9841C10.4138 23.768 10.3058 23.4439 10.0897 23.2278L8.14507 21.2832L10.3058 19.2305L12.1424 21.1751C12.3585 21.3912 12.7906 21.3912 13.0067 21.2832C13.763 20.743 14.6273 20.4189 15.5996 20.2028C15.8157 20.0948 16.0317 19.8787 16.0317 19.5546V16.8537H19.0567V19.5546C19.0567 19.8787 19.2728 20.0948 19.4889 20.2028C20.4612 20.4189 21.3255 20.743 22.0818 21.2832C22.4059 21.3912 22.73 21.3912 22.9461 21.1751L24.7827 19.2305L26.9434 21.2832L24.9988 23.2278C24.7827 23.4439 24.6746 23.768 24.8907 23.9841C25.4309 24.8484 25.755 25.7127 25.9711 26.577C25.9711 26.9011 26.2952 27.1172 26.6193 27.1172H29.3202V30.0341H26.6193C26.2952 30.0341 25.9711 30.2502 25.9711 30.5743C25.755 31.4386 25.4309 32.3029 24.8907 33.1672C24.6746 33.3833 24.7827 33.7074 24.9988 33.9234L26.9434 35.8681L24.7827 37.9208L22.9461 35.9761C22.73 35.7601 22.2978 35.7601 22.0818 35.9761C21.3255 36.4083 20.4612 36.7324 19.4889 36.9485C19.2728 37.0565 19.0567 37.2726 19.0567 37.5967V40.4056Z" fill="white"/>
<path fill-rule="evenodd" clip-rule="evenodd" d="M0.690622 16.5296H7.60496C7.92906 16.5296 8.25317 16.2055 8.25317 15.8814V9.93936C8.25317 9.72328 8.0371 9.50721 7.82103 9.39917C7.60496 9.29114 7.38888 9.29114 7.17281 9.39917L0.258476 15.3412C0.042403 15.5573 -0.0656335 15.7733 0.042403 16.0974C0.150439 16.3135 0.366512 16.5296 0.690622 16.5296Z" fill="white"/>
<path fill-rule="evenodd" clip-rule="evenodd" d="M36.3426 46.0235H43.6891C44.0132 46.0235 44.3373 45.6994 44.3373 45.3753V0.648219C44.3373 0.324109 44.0132 0 43.6891 0H17.6523V0.648219V6.59022V7.9947H34.3979C35.4783 7.9947 36.3426 8.85899 36.3426 9.93935V46.0235Z" fill="white"/>
<path fill-rule="evenodd" clip-rule="evenodd" d="M8.57721 7.23844H15.7076C16.0317 7.23844 16.3558 6.91433 16.3558 6.59022V0.648218C16.3558 0.432145 16.2478 0.216072 16.0317 0.108035C15.8157 -1.05798e-06 15.4915 -1.05798e-06 15.2755 0.108035L8.14507 6.05004C7.92899 6.26611 7.82096 6.48219 7.92899 6.8063C8.03703 7.02237 8.2531 7.23844 8.57721 7.23844Z" fill="white"/>
</svg>
