<svg width="60" height="60" viewBox="0 0 60 60" fill="none" xmlns="http://www.w3.org/2000/svg">
<path d="M52.5223 39.8732H37.7847C36.3298 39.8732 35.1396 41.0693 35.1396 42.5314V55.8898L41.2154 49.5708C41.5762 49.2219 42.1503 49.2331 42.4975 49.5957L46.6118 53.8754L49.1309 51.5801C49.4714 51.2671 49.9993 51.2601 50.3484 51.5775L55.1675 55.968V42.5314C55.1674 41.0694 53.9772 39.8732 52.5223 39.8732ZM46.8744 49.0699C45.9901 49.0699 45.2731 48.3493 45.2731 47.4605C45.2731 46.5717 45.9901 45.8512 46.8744 45.8512C47.7589 45.8512 48.4759 46.5718 48.4759 47.4605C48.4759 48.3493 47.7589 49.0699 46.8744 49.0699ZM49.741 53.4796L54.9996 58.2705C54.6228 59.278 53.6524 60 52.5223 60H37.7847C36.6726 60 35.7153 59.3012 35.3258 58.3188L41.844 51.5387L47.8525 57.7887C48.1996 58.1513 48.7737 58.1625 49.1345 57.8136C49.4954 57.4648 49.5065 56.888 49.1594 56.5254L47.8702 55.1844L49.741 53.4796ZM59.0487 23.7048H41.6482C41.1251 23.7048 40.6971 24.1349 40.6971 24.6606V35.5852C40.6971 36.1109 41.1251 36.541 41.6482 36.541H59.0489C59.572 36.541 60 36.1109 60 35.5852V24.6606C60 24.135 59.572 23.7048 59.0487 23.7048ZM54.9895 30.3512L48.6036 34.1896C48.4267 34.2959 48.203 34.1685 48.203 33.9613V26.2845C48.203 26.0772 48.4267 25.9499 48.6036 26.0562L54.9895 29.8946C55.1608 29.9976 55.1608 30.2482 54.9895 30.3512ZM35.6588 30.123C35.6588 31.9744 34.6638 33.592 33.1821 34.4661V25.7797C34.6638 26.6538 35.6588 28.2715 35.6588 30.123ZM2.91842 26.2462V33.9996C1.20061 33.5081 0 31.9198 0 30.123C0 28.2864 1.23903 26.7268 2.91842 26.2462ZM14.7268 46.6171C14.8859 47.2144 14.5312 47.8319 13.937 47.9919L11.6938 48.5959C11.0996 48.7559 10.485 48.3993 10.3258 47.8022L8.04436 39.2456H12.7613L14.7268 46.6171ZM12.7925 37.4183H7.05321C5.77733 37.4183 4.73661 36.3725 4.73661 35.0903V25.1556C4.73661 23.8733 5.77721 22.8275 7.05321 22.8275H12.7925V37.4183ZM31.3639 17.4739V42.7719C31.3639 43.8071 30.5212 44.6539 29.4912 44.6539C28.4611 44.6539 27.6184 43.8071 27.6184 42.7719V17.4739C27.6184 16.4387 28.4611 15.5919 29.4912 15.5919C30.5211 15.592 31.3639 16.4387 31.3639 17.4739ZM36.8909 20.1266H53.4159C54.3792 20.1266 55.1673 19.3346 55.1673 18.3666V1.76003C55.1673 0.792008 54.3793 0 53.4159 0H36.8909C35.9276 0 35.1394 0.792008 35.1394 1.76003V18.3666C35.1394 19.3346 35.9275 20.1266 36.8909 20.1266ZM40.6062 13.3167C41.0012 13.3167 41.3795 13.3895 41.7251 13.5209V4.74815C41.7251 4.3022 42.0433 3.9308 42.4639 3.85065L51.4973 1.45173C52.0745 1.2991 52.635 1.74127 52.6354 2.33315L52.6373 13.5969C52.6373 15.1827 51.2063 16.2921 49.7001 16.2921C48.1939 16.2921 46.763 15.1827 46.763 13.5969C46.763 12.0111 48.1941 10.9017 49.7001 10.9017C50.0952 10.9017 50.4735 10.9745 50.819 11.1059V6.41767L43.5433 8.3497V16.0118C43.5433 17.5976 42.1122 18.7069 40.6061 18.7069C39.0999 18.7069 37.669 17.5976 37.669 16.0118C37.6691 14.4259 39.1 13.3167 40.6062 13.3167ZM14.6107 22.5385L25.8001 18.9811V41.2648L14.6107 37.7075V22.5385Z" fill="white"/>
</svg>
