<svg width="71" height="62" viewBox="0 0 71 62" fill="none" xmlns="http://www.w3.org/2000/svg">
<path fill-rule="evenodd" clip-rule="evenodd" d="M47.025 24.903L53.7773 18.1781C54.6759 18.8559 55.7674 19.2226 56.9149 19.2226C58.3069 19.2226 59.6179 18.6827 60.6019 17.7013C61.5873 16.7198 62.1294 15.4156 62.1294 14.0278C62.1294 12.64 61.5873 11.3373 60.6019 10.3558C59.6179 9.37438 58.3069 8.83451 56.9149 8.83451C55.5214 8.83451 54.2119 9.37438 53.2264 10.3558C52.241 11.3373 51.6989 12.6415 51.6989 14.0278C51.6989 15.0636 52.0009 16.0523 52.5636 16.8959L45.7759 23.6575C45.4297 24.0008 45.4297 24.5582 45.7759 24.903C45.9482 25.0746 46.1736 25.1612 46.4004 25.1612C46.6243 25.1612 46.8512 25.0746 47.025 24.903ZM41.1712 44.9266H29.8259C25.0989 44.9266 21.2543 48.7556 21.2543 53.4633V60.219C21.2543 61.2005 22.0557 62 23.0426 62H28.1083V54.6589C28.1083 54.1733 28.5046 53.7787 28.9922 53.7787C29.4797 53.7787 29.876 54.1733 29.876 54.6589V62H41.1211V54.6589C41.1211 54.1733 41.5173 53.7787 42.0049 53.7787C42.4925 53.7787 42.8887 54.1733 42.8887 54.6589V62H47.9545C48.9414 62 49.7427 61.2005 49.7427 60.219V53.4633C49.7427 48.7556 45.8981 44.9266 41.1712 44.9266ZM43.039 35.3571C43.039 31.2157 39.6569 27.8473 35.4985 27.8473C31.3416 27.8473 27.9581 31.2157 27.9581 35.3571C27.9581 39.4971 31.3416 42.8669 35.4985 42.8669C39.6569 42.8669 43.039 39.4971 43.039 35.3571ZM50.9152 34.2568C50.4277 34.2568 50.0314 34.6515 50.0314 35.1371C50.0314 35.6226 50.4277 36.0173 50.9152 36.0173H60.6122C60.9392 38.5714 63.134 40.5519 65.784 40.5519C68.6608 40.5519 71 38.2222 71 35.3586C71 32.4934 68.6608 30.1638 65.784 30.1638C63.2887 30.1638 61.197 31.9198 60.6888 34.2568H50.9152ZM20.0833 34.2568H10.3127C9.80301 31.9198 7.71278 30.1638 5.216 30.1638C2.33917 30.1638 0 32.4934 0 35.3586C0 38.2222 2.33917 40.5519 5.216 40.5519C7.86598 40.5519 10.0608 38.5714 10.3878 36.0173H20.0848C20.5723 36.0173 20.9686 35.6226 20.9686 35.1371C20.9686 34.6515 20.5723 34.2568 20.0833 34.2568ZM25.2227 23.6575L18.435 16.8959C18.9977 16.0523 19.2996 15.0636 19.2996 14.0278C19.2996 12.64 18.7576 11.3373 17.7721 10.3558C16.7866 9.37438 15.4771 8.83451 14.0836 8.83451C12.6916 8.83451 11.3806 9.37438 10.3966 10.3558C9.41118 11.3373 8.86911 12.6415 8.86911 14.0278C8.86911 15.4156 9.41118 16.7198 10.3966 17.7013C11.3806 18.6827 12.6916 19.2226 14.0836 19.2226C15.2311 19.2226 16.3226 18.8559 17.2212 18.1781L23.9735 24.903C24.1459 25.0746 24.3727 25.1612 24.5981 25.1612C24.825 25.1612 25.0503 25.0746 25.2227 24.903C25.5703 24.5597 25.5703 24.0022 25.2227 23.6575ZM36.3838 19.7845V10.3133C38.8394 9.89371 40.716 7.75917 40.716 5.19478C40.716 2.33112 38.3754 0 35.5 0C32.6246 0 30.284 2.33112 30.284 5.19478C30.284 7.75917 32.1606 9.89371 34.6162 10.3133V19.7845C34.6162 20.2701 35.0124 20.6647 35.5 20.6647C35.9861 20.6647 36.3838 20.2701 36.3838 19.7845Z" fill="white"/>
</svg>
