<svg width="58" height="62" viewBox="0 0 58 62" fill="none" xmlns="http://www.w3.org/2000/svg">
<path d="M36.6563 8.03125V5.84375C36.6563 4.39335 36.0801 3.00235 35.0545 1.97676C34.0289 0.95117 32.6379 0.375 31.1875 0.375H16.9688V0.714062C16.9667 2.02771 17.3192 3.31756 17.9891 4.44756C18.659 5.57756 19.6215 6.5058 20.775 7.13438C21.8502 7.72667 23.0585 8.03533 24.2859 8.03125H36.6563Z" fill="white"/>
<path d="M29 26.625C31.0299 26.6227 32.9759 25.8153 34.4112 24.38C35.8466 22.9447 36.6539 20.9986 36.6562 18.9688V10.2188H24.2859C23.286 10.2137 22.2932 10.0513 21.3438 9.7375V18.9688C21.3461 20.9986 22.1534 22.9447 23.5888 24.38C25.0241 25.8153 26.9701 26.6227 29 26.625ZM31.1875 14.5938C31.1875 14.3037 31.3027 14.0255 31.5079 13.8204C31.713 13.6152 31.9912 13.5 32.2812 13.5C32.5713 13.5 32.8495 13.6152 33.0546 13.8204C33.2598 14.0255 33.375 14.3037 33.375 14.5938V15.6875C33.375 15.9776 33.2598 16.2558 33.0546 16.4609C32.8495 16.666 32.5713 16.7813 32.2812 16.7813C31.9912 16.7813 31.713 16.666 31.5079 16.4609C31.3027 16.2558 31.1875 15.9776 31.1875 15.6875V14.5938ZM24.625 14.5938C24.625 14.3037 24.7402 14.0255 24.9454 13.8204C25.1505 13.6152 25.4287 13.5 25.7188 13.5C26.0088 13.5 26.287 13.6152 26.4921 13.8204C26.6973 14.0255 26.8125 14.3037 26.8125 14.5938V15.6875C26.8125 15.9776 26.6973 16.2558 26.4921 16.4609C26.287 16.666 26.0088 16.7813 25.7188 16.7813C25.4287 16.7813 25.1505 16.666 24.9454 16.4609C24.7402 16.2558 24.625 15.9776 24.625 15.6875V14.5938ZM26.8125 21.1563C26.8125 21.6025 27.6645 22.25 29 22.25C30.3355 22.25 31.1875 21.6025 31.1875 21.1563H33.375C33.375 22.9959 31.4533 24.4375 29 24.4375C26.5467 24.4375 24.625 22.9959 24.625 21.1563H26.8125Z" fill="white"/>
<path d="M23.2796 44.5188C23.389 44.6508 23.4658 44.8067 23.5038 44.9739C23.5418 45.1411 23.5399 45.3149 23.4984 45.4813L21.8578 52.0328L28.5515 49.0031C28.6921 48.9383 28.8451 48.9047 29 48.9047C29.1548 48.9047 29.3078 48.9383 29.4484 49.0031L36.1421 52.0328L34.5015 45.4813C34.46 45.3149 34.4581 45.1411 34.4961 44.9739C34.5341 44.8067 34.6109 44.6508 34.7203 44.5188L38.6906 39.75H33.375C33.1822 39.7508 32.9927 39.7006 32.8256 39.6046C32.6585 39.5085 32.5198 39.37 32.4234 39.2031L29 33.2094L25.5765 39.2031C25.4802 39.37 25.3414 39.5085 25.1743 39.6046C25.0072 39.7006 24.8177 39.7508 24.625 39.75H19.3093L23.2796 44.5188Z" fill="white"/>
<path d="M23.9906 37.5625L25.8719 34.2703L23.1266 33.2422C22.9078 33.4063 22.6672 33.5484 22.4375 33.6906L23.8812 37.5625H23.9906Z" fill="white"/>
<path d="M42.0266 38.1969C42.1134 38.3848 42.1451 38.5935 42.118 38.7987C42.0909 39.004 42.0061 39.1973 41.8735 39.3562L36.7547 45.4922L36.9625 46.3125H42.5844L43.2188 45.1969V40.2531C43.2234 39.076 42.845 37.9293 42.1406 36.9862C41.4362 36.0431 40.4441 35.3547 39.3141 35.025L37.5969 34.5L36.4485 37.5625H41.0313C41.2405 37.562 41.4455 37.6215 41.6219 37.7339C41.7983 37.8463 41.9387 38.007 42.0266 38.1969Z" fill="white"/>
<path d="M34.0094 37.5625H34.1188L35.5625 33.6906C35.3283 33.5539 35.1019 33.4042 34.8844 33.2422L32.1282 34.2703L34.0094 37.5625Z" fill="white"/>
<path d="M29 28.8125C27.8738 28.8114 26.7562 28.6153 25.6969 28.2328C25.662 29.3905 25.3224 30.5185 24.7125 31.5031L26.9656 32.3453L28.0485 30.4531C28.153 30.2966 28.2945 30.1682 28.4605 30.0794C28.6265 29.9907 28.8118 29.9442 29 29.9442C29.1883 29.9442 29.3736 29.9907 29.5396 30.0794C29.7056 30.1682 29.8471 30.2966 29.9516 30.4531L31.0344 32.3453L33.2875 31.5031C32.6776 30.5185 32.3381 29.3905 32.3031 28.2328C31.2438 28.6153 30.1263 28.8114 29 28.8125Z" fill="white"/>
<path d="M21.0375 46.3125L21.2454 45.4922L16.1266 39.3562C15.9935 39.1964 15.9087 39.0019 15.8822 38.7956C15.8557 38.5893 15.8886 38.3797 15.977 38.1914C16.0654 38.0031 16.2056 37.8439 16.3813 37.7325C16.557 37.6211 16.7608 37.5622 16.9688 37.5625H21.5516L20.4032 34.5L18.686 35.025C17.556 35.3547 16.5639 36.0431 15.8595 36.9862C15.1551 37.9293 14.7767 39.076 14.7813 40.2531V45.1969L15.4157 46.3125H21.0375Z" fill="white"/>
<path d="M38.811 53.7063C38.8508 53.8673 38.8534 54.0353 38.8187 54.1975C38.784 54.3598 38.7129 54.512 38.6107 54.6427C38.5084 54.7733 38.3778 54.879 38.2287 54.9518C38.0796 55.0245 37.9159 55.0624 37.75 55.0625C37.5952 55.0625 37.4422 55.0289 37.3016 54.9641L32.4781 52.7766L33.2766 61.625H37.9907L39.8391 54.2422L38.5703 52.7219L38.811 53.7063Z" fill="white"/>
<path d="M51.0172 47.9531L47.5938 41.9594L44.1703 47.9531C44.074 48.12 43.9352 48.2585 43.7681 48.3546C43.601 48.4506 43.4115 48.5008 43.2188 48.5H37.8922L41.8735 53.2688C41.9828 53.4008 42.0596 53.5567 42.0976 53.7239C42.1356 53.8911 42.1337 54.0649 42.0922 54.2313L40.4516 60.7828L47.1453 57.7531C47.2859 57.6883 47.4389 57.6547 47.5938 57.6547C47.7486 57.6547 47.9016 57.6883 48.0422 57.7531L54.736 60.7828L53.0953 54.2313C53.0538 54.0649 53.052 53.8911 53.09 53.7239C53.128 53.5567 53.2047 53.4008 53.3141 53.2688L57.2844 48.5H51.9688C51.776 48.5008 51.5865 48.4506 51.4194 48.3546C51.2523 48.2585 51.1136 48.12 51.0172 47.9531Z" fill="white"/>
<path d="M41.0312 13.5V12.4062C41.0312 12.1162 40.916 11.838 40.7109 11.6329C40.5058 11.4277 40.2276 11.3125 39.9375 11.3125H38.8438V14.5938H39.9375C40.2276 14.5938 40.5058 14.4785 40.7109 14.2734C40.916 14.0683 41.0312 13.7901 41.0312 13.5Z" fill="white"/>
<path d="M29 51.2016L27.8078 51.7375L26.9109 61.625H31.089L30.1921 51.7375L29 51.2016Z" fill="white"/>
<path d="M19.55 54.8109C19.3921 54.6793 19.2745 54.5059 19.2106 54.3105C19.1468 54.1151 19.1393 53.9057 19.189 53.7063L19.4296 52.7219L18.1609 54.2422L20.0093 61.625H24.7234L25.5218 52.7766L20.6984 54.9641C20.5118 55.0486 20.3053 55.0791 20.1022 55.0521C19.8992 55.025 19.7078 54.9414 19.55 54.8109Z" fill="white"/>
<path d="M16.9688 12.4062V13.5C16.9688 13.7901 17.084 14.0683 17.2891 14.2734C17.4942 14.4785 17.7724 14.5938 18.0625 14.5938H19.1562V11.3125H18.0625C17.7724 11.3125 17.4942 11.4277 17.2891 11.6329C17.084 11.838 16.9688 12.1162 16.9688 12.4062Z" fill="white"/>
<path d="M16.1265 53.2688L20.1078 48.5H14.7812C14.5885 48.5008 14.399 48.4506 14.2319 48.3546C14.0648 48.2585 13.926 48.12 13.8296 47.9531L10.4062 41.9594L6.98276 47.9531C6.8864 48.12 6.74764 48.2585 6.58054 48.3546C6.41344 48.4506 6.22393 48.5008 6.0312 48.5H0.715576L4.68589 53.2688C4.79524 53.4008 4.87201 53.5567 4.91001 53.7239C4.94801 53.8911 4.94617 54.0649 4.90464 54.2313L3.26401 60.7828L9.95776 57.7531C10.0984 57.6883 10.2514 57.6547 10.4062 57.6547C10.561 57.6547 10.714 57.6883 10.8546 57.7531L17.5484 60.7828L15.9078 54.2313C15.8662 54.0649 15.8644 53.8911 15.9024 53.7239C15.9404 53.5567 16.0172 53.4008 16.1265 53.2688Z" fill="white"/>
</svg>
