<svg width="70" height="70" viewBox="0 0 70 70" fill="none" xmlns="http://www.w3.org/2000/svg">
<g clip-path="url(#clip0_15_96)">
<g clip-path="url(#clip1_15_96)">
<path fill-rule="evenodd" clip-rule="evenodd" d="M60.096 11.2736C60.5444 11.5265 60.8384 11.925 60.8384 12.3655C60.8384 12.806 60.5444 13.2046 60.096 13.4575V11.2736ZM57.1676 7.43271C57.1676 6.9922 57.4627 6.59367 57.91 6.34074V8.52482C57.4627 8.27176 57.1676 7.87336 57.1676 7.43271ZM57.91 33.6253C57.4627 33.3724 57.1676 32.9729 57.1676 32.5333C57.1676 32.0938 57.4627 31.6932 57.91 31.4396V33.6246V33.6253ZM60.096 38.5581V36.3721C60.5444 36.625 60.8384 37.0255 60.8384 37.4659C60.8384 37.9062 60.5444 38.305 60.096 38.558V38.5581ZM57.91 58.7259C57.4627 58.4728 57.1676 58.0733 57.1676 57.6321C57.1676 57.191 57.4627 56.7931 57.91 56.54V58.7252V58.7259ZM60.096 61.4739C60.5444 61.727 60.8384 62.1265 60.8384 62.5661C60.8384 63.0056 60.5444 63.4041 60.096 63.6571V61.4735V61.4739ZM54.9807 57.6332C54.9807 59.2602 56.2221 60.6349 57.91 61.0589V63.6565C57.4627 63.4036 57.1676 63.006 57.1676 62.5655C57.1676 62.2754 57.0524 61.9972 56.8473 61.7921C56.6421 61.587 56.3639 61.4718 56.0739 61.4718C55.7838 61.4718 55.5056 61.587 55.3005 61.7921C55.0953 61.9972 54.9801 62.2754 54.9801 62.5655C54.9801 64.1938 56.2215 65.5681 57.9095 65.9921V66.208C57.9078 66.3525 57.9349 66.496 57.9891 66.63C58.0433 66.764 58.1236 66.886 58.2252 66.9888C58.3269 67.0916 58.4479 67.1732 58.5813 67.2289C58.7147 67.2846 58.8579 67.3133 59.0024 67.3133C59.147 67.3133 59.2902 67.2846 59.4236 67.2289C59.557 67.1732 59.678 67.0916 59.7797 66.9888C59.8813 66.886 59.9616 66.764 60.0158 66.63C60.07 66.496 60.0971 66.3525 60.0954 66.208V65.9921C61.7853 65.5683 63.0268 64.1938 63.0268 62.5655C63.0268 60.9372 61.7853 59.5638 60.0954 59.1399V56.5407C60.5439 56.7938 60.8378 57.1933 60.8378 57.6328C60.841 57.921 60.9578 58.1963 61.1627 58.3989C61.3676 58.6015 61.6442 58.7152 61.9323 58.7152C62.2205 58.7152 62.4971 58.6015 62.702 58.3989C62.9069 58.1963 63.0236 57.921 63.0268 57.6328C63.0268 56.0036 61.7853 54.6293 60.0954 54.2072V53.9894C60.0971 53.8448 60.07 53.7014 60.0158 53.5674C59.9616 53.4333 59.8813 53.3114 59.7797 53.2086C59.678 53.1058 59.557 53.0242 59.4236 52.9685C59.2902 52.9128 59.147 52.8841 59.0024 52.8841C58.8579 52.8841 58.7147 52.9128 58.5813 52.9685C58.4479 53.0242 58.3269 53.1058 58.2252 53.2086C58.1236 53.3114 58.0433 53.4333 57.9891 53.5674C57.9349 53.7014 57.9078 53.8448 57.9095 53.9894V54.2072C56.2215 54.6293 54.9801 56.0036 54.9801 57.6328L54.9807 57.6332ZM57.91 15.7921V16.0089C57.9084 16.1535 57.9355 16.297 57.9897 16.431C58.0439 16.565 58.1241 16.6869 58.2258 16.7897C58.3274 16.8925 58.4485 16.9742 58.5819 17.0299C58.7153 17.0856 58.8584 17.1142 59.003 17.1142C59.1476 17.1142 59.2907 17.0856 59.4241 17.0299C59.5575 16.9742 59.6786 16.8925 59.7802 16.7897C59.8819 16.6869 59.9621 16.565 60.0163 16.431C60.0705 16.297 60.0976 16.1535 60.096 16.0089V15.7921C61.7858 15.3691 63.0274 13.9938 63.0274 12.3655C63.0274 10.7372 61.7858 9.36291 60.096 8.9414V6.34074C60.5444 6.59367 60.8384 6.9922 60.8384 7.43271C60.8416 7.72087 60.9583 7.99614 61.1632 8.19877C61.3681 8.4014 61.6447 8.51505 61.9329 8.51505C62.2211 8.51505 62.4976 8.4014 62.7025 8.19877C62.9074 7.99614 63.0242 7.72087 63.0274 7.43271C63.0274 5.80439 61.7858 4.4301 60.096 4.00517V3.78929C60.0976 3.64473 60.0705 3.50128 60.0163 3.36726C59.9621 3.23323 59.8819 3.11129 59.7802 3.00849C59.6786 2.90569 59.5575 2.82408 59.4241 2.76838C59.2907 2.71268 59.1476 2.684 59.003 2.684C58.8584 2.684 58.7153 2.71268 58.5819 2.76838C58.4485 2.82408 58.3274 2.90569 58.2258 3.00849C58.1241 3.11129 58.0439 3.23323 57.9897 3.36726C57.9355 3.50128 57.9084 3.64473 57.91 3.78929V4.00586C56.2221 4.43078 54.9807 5.80508 54.9807 7.4334C54.9807 9.06172 56.2221 10.436 57.91 10.86V13.4576C57.4627 13.2047 57.1676 12.8062 57.1676 12.3657C57.1676 12.0756 57.0524 11.7974 56.8473 11.5923C56.6421 11.3871 56.3639 11.2719 56.0739 11.2719C55.7838 11.2719 55.5056 11.3871 55.3005 11.5923C55.0953 11.7974 54.9801 12.0756 54.9801 12.3657C54.9801 13.994 56.2215 15.3692 57.9095 15.7922L57.91 15.7921ZM54.9807 37.466C54.9807 39.0943 56.2221 40.4678 57.91 40.8916V41.1075C57.9084 41.2521 57.9355 41.3955 57.9897 41.5295C58.0439 41.6636 58.1241 41.7855 58.2258 41.8883C58.3274 41.9911 58.4485 42.0727 58.5819 42.1284C58.7153 42.1841 58.8584 42.2128 59.003 42.2128C59.1476 42.2128 59.2907 42.1841 59.4241 42.1284C59.5575 42.0727 59.6786 41.9911 59.7802 41.8883C59.8819 41.7855 59.9621 41.6636 60.0163 41.5295C60.0705 41.3955 60.0976 41.2521 60.096 41.1075V40.8916C61.7858 40.4678 63.0274 39.0943 63.0274 37.466C63.0274 35.8377 61.7858 34.4634 60.096 34.0415V31.4403C60.5444 31.6932 60.8384 32.0928 60.8384 32.534C60.8416 32.8222 60.9583 33.0974 61.1632 33.3001C61.3681 33.5027 61.6447 33.6163 61.9329 33.6163C62.2211 33.6163 62.4976 33.5027 62.7025 33.3001C62.9074 33.0974 63.0242 32.8222 63.0274 32.534C63.0274 30.9057 61.7858 29.5303 60.096 29.1074V28.8906C60.0976 28.746 60.0705 28.6026 60.0163 28.4685C59.9621 28.3345 59.8819 28.2126 59.7802 28.1098C59.6786 28.007 59.5575 27.9254 59.4241 27.8697C59.2907 27.814 59.1476 27.7853 59.003 27.7853C58.8584 27.7853 58.7153 27.814 58.5819 27.8697C58.4485 27.9254 58.3274 28.007 58.2258 28.1098C58.1241 28.2126 58.0439 28.3345 57.9897 28.4685C57.9355 28.6026 57.9084 28.746 57.91 28.8906V29.1074C56.2221 29.5303 54.9807 30.9057 54.9807 32.534C54.9807 34.1623 56.2221 35.5357 57.91 35.9585V38.5588C57.4627 38.3059 57.1676 37.9062 57.1676 37.4667C57.1676 37.1766 57.0524 36.8984 56.8473 36.6933C56.6421 36.4882 56.3639 36.3729 56.0739 36.3729C55.7838 36.3729 55.5056 36.4882 55.3005 36.6933C55.0953 36.8984 54.9801 37.1766 54.9801 37.4667L54.9807 37.466ZM33.1162 33.9062V36.0937H42.1016L42.0919 60.1189C42.0917 60.2626 42.1199 60.4049 42.1748 60.5377C42.2297 60.6705 42.3102 60.7912 42.4118 60.8928C42.5134 60.9944 42.6341 61.0749 42.7669 61.1298C42.8997 61.1847 43.042 61.2129 43.1857 61.2127H49.1664C49.4504 63.7281 50.687 66.0392 52.6221 67.6712C54.5572 69.3032 57.0438 70.1321 59.571 69.9877C62.0983 69.8433 64.4743 68.7364 66.2108 66.8946C67.9474 65.0527 68.9126 62.6158 68.9081 60.0844C68.9037 57.553 67.93 55.1194 66.187 53.2837C64.444 51.4479 62.0642 50.3494 59.5364 50.2138C57.0087 50.0782 54.525 50.9158 52.5956 52.5546C50.6663 54.1933 49.4378 56.5088 49.1626 59.0252H44.2798L44.2878 36.0937H49.1657C49.4453 38.609 50.6776 40.9217 52.6094 42.5567C54.5412 44.1916 57.0258 45.0247 59.5527 44.8846C62.0795 44.7446 64.4569 43.6422 66.1962 41.8038C67.9355 39.9655 68.9047 37.5308 68.9047 35C68.9047 32.4692 67.9355 30.0345 66.1962 28.1962C64.4569 26.3578 62.0795 25.2554 59.5527 25.1154C57.0258 24.9753 54.5412 25.8084 52.6094 27.4433C50.6776 29.0783 49.4453 31.391 49.1657 33.9062H44.2906L44.2984 10.9937H49.1656C49.4452 13.509 50.6775 15.8217 52.6093 17.4566C54.541 19.0916 57.0256 19.9246 59.5525 19.7846C62.0794 19.6446 64.4567 18.5421 66.1961 16.7038C67.9354 14.8654 68.9046 12.4307 68.9046 9.89994C68.9046 7.36916 67.9354 4.93449 66.1961 3.09612C64.4567 1.25776 62.0794 0.155314 59.5525 0.0152971C57.0256 -0.12472 54.541 0.708322 52.6093 2.34327C50.6775 3.97822 49.4452 6.29091 49.1656 8.80619H43.2064C42.9164 8.80619 42.6382 8.92142 42.433 9.12654C42.2279 9.33166 42.1127 9.60986 42.1127 9.89994L42.1026 33.9062H33.1162ZM30.9027 36.3398C30.0923 36.7153 29.3759 37.2668 28.8057 37.9542C28.2354 38.6416 27.8257 39.4475 27.6064 40.3133C27.387 41.1791 27.3636 42.0829 27.5378 42.9589C27.712 43.8348 28.0794 44.6609 28.6132 45.3769H9.13709C8.90466 41.7911 9.42419 39.2007 10.6872 37.672C11.4822 36.7079 12.4171 36.1648 13.4079 35.5895C15.2413 34.5257 17.32 33.32 18.3631 29.4182C18.4031 29.2692 18.4111 29.1134 18.3867 28.961C18.3623 28.8087 18.306 28.6632 18.2215 28.5342L15.847 24.9093C15.694 24.6756 15.4574 24.5092 15.1857 24.4444C14.914 24.3795 14.6278 24.4211 14.3857 24.5606C12.0752 25.8938 9.99117 26.4883 7.62238 26.4883C7.43565 26.4883 7.25204 26.5361 7.08903 26.6272C6.92601 26.7182 6.78902 26.8495 6.69111 27.0085C6.59319 27.1675 6.53761 27.3489 6.52965 27.5354C6.5217 27.722 6.56163 27.9075 6.64566 28.0742L7.8373 30.4395L4.11773 31.7786L1.50832 27.3074L12.8077 17.1371C12.9453 17.0131 13.0493 16.8563 13.1098 16.6812C13.1703 16.5061 13.1853 16.3185 13.1536 16.136C12.9158 14.6884 12.3083 13.3268 11.3899 12.1829C14.2625 11.7111 15.4661 13.2475 16.1371 14.5481C16.2329 14.7337 16.3799 14.8879 16.5606 14.9927C16.7413 15.0974 16.9482 15.1482 17.1569 15.139C21.0992 14.9662 24.0959 15.9615 26.32 18.1807C29.6314 21.4823 31.1718 27.5892 30.9031 36.3393L30.9027 36.3398ZM34.761 51.6432H4.72968V47.5644H34.761V51.6426V51.6432ZM38.4016 57.9102H1.09119V53.8292H38.4017L38.4016 57.9102Z" fill="#FC0005"/>
</g>
</g>
<defs>
<clipPath id="clip0_15_96">
<rect width="70" height="70" fill="white"/>
</clipPath>
<clipPath id="clip1_15_96">
<rect width="70" height="70" fill="white"/>
</clipPath>
</defs>
</svg>
