<svg width="70" height="70" viewBox="0 0 70 70" fill="none" xmlns="http://www.w3.org/2000/svg">
<g clip-path="url(#clip0_14_13)">
<g clip-path="url(#clip1_14_13)">
<path d="M52.8417 44.6385C48.494 49.0272 45.8281 54.9063 45.3359 61.0586C45.2538 62.1247 44.3516 62.9452 43.2852 62.9452H26.7147C25.6483 62.9452 24.7461 62.1249 24.6639 61.0586C24.1717 54.9063 21.5059 49.0272 17.1582 44.6385C16.4608 43.9824 16.3379 42.8749 16.8711 42.0546L32.9492 17.9374L34.7539 21.1367L35 20.8085L37.0508 17.9374L53.1288 42.0546C53.6621 42.8749 53.5392 43.9824 52.8417 44.6385Z" fill="#FFDA45"/>
<path d="M52.8417 44.6385C48.494 49.0272 45.8281 54.9063 45.3359 61.0586C45.2538 62.1247 44.3516 62.9452 43.2852 62.9452H35V20.8085L37.0508 17.9374L53.1288 42.0546C53.6621 42.8749 53.5392 43.9824 52.8417 44.6385Z" fill="#FFBC36"/>
<path d="M39.1016 57.6953H30.8984C25.2383 57.6953 20.6445 62.2891 20.6445 67.9492C20.6445 69.0975 21.5467 70 22.6953 70H47.3047C48.4533 70 49.3555 69.0975 49.3555 67.9492C49.3555 62.2891 44.7617 57.6953 39.1016 57.6953Z" fill="#BF6015"/>
<path d="M49.3555 67.9492C49.3555 69.0975 48.4533 70 47.3047 70H35V57.6953H39.1016C44.7617 57.6953 49.3555 62.2891 49.3555 67.9492Z" fill="#994C10"/>
<path d="M61.6602 6.15234C61.6602 7.30064 60.7579 8.20312 59.6094 8.20312H10.3906C9.24205 8.20312 8.33984 7.30064 8.33984 6.15234C8.33984 5.00377 9.24205 4.10156 10.3906 4.10156H59.6094C60.7579 4.10156 61.6602 5.00377 61.6602 6.15234Z" fill="#1689FC"/>
<path d="M61.6602 6.15234C61.6602 7.30064 60.7579 8.20312 59.6094 8.20312H35V4.10156H59.6094C60.7579 4.10156 61.6602 5.00377 61.6602 6.15234Z" fill="#136EF1"/>
<path d="M10.3906 32.8125C9.25709 32.8125 8.33984 31.8953 8.33984 30.7617C8.33984 17.6799 17.6906 6.62104 30.574 4.46813C31.6855 4.26989 32.747 5.03688 32.9353 6.15237C33.1215 7.26991 32.3684 8.32729 31.251 8.51364C20.3521 10.3361 12.4414 19.6927 12.4414 30.7617C12.4414 31.8953 11.5242 32.8125 10.3906 32.8125Z" fill="#1689FC"/>
<path d="M59.6093 32.8125C58.4758 32.8125 57.5585 31.8953 57.5585 30.7617C57.5585 19.6927 49.6479 10.3361 38.749 8.51361C37.6315 8.3274 36.8785 7.26988 37.0648 6.15234C37.251 5.03685 38.3065 4.26781 39.4261 4.4681C52.3094 6.62101 61.6601 17.6799 61.6601 30.7617C61.6601 31.8953 60.7429 32.8125 59.6093 32.8125Z" fill="#136EF1"/>
<path d="M10.3906 41.0156C6.99809 41.0156 4.23828 38.2558 4.23828 34.8633C4.23828 31.4707 6.99809 28.7109 10.3906 28.7109C13.7832 28.7109 16.543 31.4707 16.543 34.8633C16.543 38.2558 13.7832 41.0156 10.3906 41.0156Z" fill="#00C8C8"/>
<path d="M10.3906 36.9141C9.25982 36.9141 8.33984 35.9941 8.33984 34.8633C8.33984 33.7325 9.25982 32.8125 10.3906 32.8125C11.5214 32.8125 12.4414 33.7325 12.4414 34.8633C12.4414 35.9941 11.5214 36.9141 10.3906 36.9141Z" fill="#E1F1FA"/>
<path d="M59.6094 41.0156C56.2168 41.0156 53.457 38.2558 53.457 34.8633C53.457 31.4707 56.2168 28.7109 59.6094 28.7109C63.0019 28.7109 65.7617 31.4707 65.7617 34.8633C65.7617 38.2558 63.0019 41.0156 59.6094 41.0156Z" fill="#00A1B2"/>
<path d="M59.6094 36.9141C58.4786 36.9141 57.5586 35.9941 57.5586 34.8633C57.5586 33.7325 58.4786 32.8125 59.6094 32.8125C60.7402 32.8125 61.6602 33.7325 61.6602 34.8633C61.6602 35.9941 60.7402 36.9141 59.6094 36.9141Z" fill="#BFE1FF"/>
<path d="M35 0C31.5956 0 28.8477 2.74791 28.8477 6.15234C28.8477 9.5565 31.5956 12.3047 35 12.3047C38.4044 12.3047 41.1523 9.5565 41.1523 6.15234C41.1523 2.74791 38.4044 0 35 0Z" fill="#00C8C8"/>
<path d="M10.2539 12.3047H2.05078C0.917246 12.3047 0 11.3874 0 10.2539V2.05078C0 0.917246 0.917246 0 2.05078 0H10.2539C11.3874 0 12.3047 0.917246 12.3047 2.05078V10.2539C12.3047 11.3874 11.3874 12.3047 10.2539 12.3047Z" fill="#00C8C8"/>
<path d="M8.20312 4.10156H4.10156V8.20312H8.20312V4.10156Z" fill="#E1F1FA"/>
<path d="M67.9492 12.3047H59.7461C58.6126 12.3047 57.6953 11.3874 57.6953 10.2539V2.05078C57.6953 0.917246 58.6126 0 59.7461 0H67.9492C69.0828 0 70 0.917246 70 2.05078V10.2539C70 11.3874 69.0828 12.3047 67.9492 12.3047Z" fill="#00A1B2"/>
<path d="M65.8984 4.10156H61.7969V8.20312H65.8984V4.10156Z" fill="#BFE1FF"/>
<path d="M35 37.0508C31.5956 37.0508 28.8477 39.7987 28.8477 43.2031C28.8477 46.6073 31.5956 49.3555 35 49.3555C38.4044 49.3555 41.1523 46.6073 41.1523 43.2031C41.1523 39.7987 38.4044 37.0508 35 37.0508Z" fill="#994C0F"/>
<path d="M37.0508 17.9374V39.1016C37.0508 40.2499 36.1486 41.1523 35 41.1523C33.8514 41.1523 32.9492 40.2499 32.9492 39.1016V17.9374L33.2775 17.4452C33.6875 16.871 34.3439 16.584 35 16.584C35.6561 16.584 36.3125 16.8708 36.7225 17.4452L37.0508 17.9374Z" fill="#994C0F"/>
<path d="M35 12.3047V0C38.4044 0 41.1523 2.74791 41.1523 6.15234C41.1523 9.5565 38.4044 12.3047 35 12.3047Z" fill="#00A1B2"/>
<path d="M35 8.20312C33.8692 8.20312 32.9492 7.28314 32.9492 6.15234C32.9492 5.02154 33.8692 4.10156 35 4.10156C36.1308 4.10156 37.0508 5.02154 37.0508 6.15234C37.0508 7.28314 36.1308 8.20312 35 8.20312Z" fill="#E1F1FA"/>
<path d="M37.0508 6.15234C37.0508 5.02154 36.1308 4.10156 35 4.10156V8.20312C36.1308 8.20312 37.0508 7.28314 37.0508 6.15234Z" fill="#BFE1FF"/>
<path d="M35 41.1523V16.584C35.6561 16.584 36.3125 16.8708 36.7225 17.4452L37.0508 17.9374V39.1016C37.0508 40.2499 36.1486 41.1523 35 41.1523Z" fill="#713708"/>
<path d="M41.1523 43.2031C41.1523 46.6073 38.4044 49.3555 35 49.3555V37.0508C38.4044 37.0508 41.1523 39.7987 41.1523 43.2031Z" fill="#713708"/>
</g>
</g>
<defs>
<clipPath id="clip0_14_13">
<rect width="70" height="70" fill="white"/>
</clipPath>
<clipPath id="clip1_14_13">
<rect width="70" height="70" fill="white"/>
</clipPath>
</defs>
</svg>
