<svg width="70" height="70" viewBox="0 0 70 70" fill="none" xmlns="http://www.w3.org/2000/svg">
<g clip-path="url(#clip0_15_76)">
<path fill-rule="evenodd" clip-rule="evenodd" d="M48.8004 40.1584C41.9331 40.1584 36.3645 34.8961 36.3645 28.4074C36.3645 22.8033 40.5809 17.541 46.0961 15.0144L44.1041 10.3988C43.8211 9.74803 43.992 9.01112 44.4993 8.55038C44.9094 8.1826 45.4959 8.13202 45.9567 8.43007L46.4024 8.71307C46.8057 8.97284 47.2979 8.97284 47.7012 8.71307L48.151 8.42596C48.5584 8.1662 49.0465 8.1662 49.4499 8.42596L49.8997 8.71307C50.3071 8.97284 50.7952 8.97284 51.2012 8.71307L51.6428 8.43007C52.1077 8.13202 52.6928 8.1826 53.1002 8.55038C53.6116 9.01112 53.7825 9.74803 53.4995 10.3988L51.5034 15.0144C57.0227 17.541 61.235 22.8047 61.235 28.4074C61.2336 34.8961 55.6678 40.1584 48.8004 40.1584Z" fill="#EABC6B"/>
<path d="M51.1575 13.9604C51.7385 13.7662 52.3633 14.0848 52.5561 14.6617C52.7462 15.2428 52.4317 15.8703 51.8507 16.0604C51.3967 16.2121 50.9005 16.3283 50.385 16.4049C49.8805 16.4787 49.346 16.517 48.8005 16.517C48.2549 16.517 47.719 16.4787 47.2118 16.4049C46.6964 16.327 46.2042 16.2108 45.7475 16.0604C45.1665 15.8703 44.852 15.2428 45.0462 14.6617C45.2362 14.0848 45.8637 13.7662 46.4407 13.9604C46.7551 14.0657 47.1229 14.1463 47.5331 14.2078C47.9241 14.2666 48.3507 14.2967 48.8005 14.2967C49.2503 14.2967 49.6768 14.2653 50.0637 14.2078C50.4794 14.1463 50.8471 14.0643 51.1575 13.9604Z" fill="#FFE07D"/>
<path fill-rule="evenodd" clip-rule="evenodd" d="M49.7657 55.866L64.4999 52.2813C71.0036 50.6967 71.1622 56.4512 67.1317 58.1998L43.4684 68.451C39.3997 70.2147 35.3569 70.4703 31.0981 69.2344L11.7128 63.6057V59.1254V56.7465V50.8676L20.6104 48.8373C23.8001 48.1086 26.6944 48.1975 29.8335 49.1203L47.4975 54.3102C48.6145 54.6328 49.3514 55.2029 49.7657 55.866Z" fill="#F9C295"/>
<path fill-rule="evenodd" clip-rule="evenodd" d="M51.7002 55.3971L51.9599 55.3356C52.2744 56.0369 52.4207 56.8354 52.3441 57.7035C52.2088 59.269 51.3283 60.6567 50.0226 61.5125C48.5584 62.4819 46.7824 62.6637 45.0926 62.2987L27.6801 58.5239L28.1408 56.3883L45.5533 60.1631C49.1531 60.9424 51.0726 57.9496 49.7656 55.8647L51.7002 55.3971Z" fill="#E0AF86"/>
<path d="M49.9133 34.7484C49.9133 35.365 49.4129 35.8613 48.8004 35.8613C48.1838 35.8613 47.6875 35.365 47.6875 34.7484V33.5699C47.6875 33.5508 47.6875 33.5316 47.6875 33.5125C46.7031 33.2103 45.7693 32.5746 45.083 31.5287C44.9012 31.2498 44.7344 30.9353 44.5908 30.5908C44.3543 30.0248 44.6222 29.3781 45.1883 29.1416C45.7543 28.9092 46.4051 29.1771 46.6375 29.7418C46.7263 29.9469 46.8275 30.141 46.9396 30.3119C47.3347 30.9162 47.8693 31.2648 48.4203 31.4166C48.974 31.5642 49.5441 31.5219 50.009 31.3236C50.117 31.2812 50.2222 31.2266 50.3193 31.1609C50.4041 31.1062 50.4779 31.0447 50.5367 30.9832C50.7185 30.7973 50.8347 30.5689 50.8662 30.3324C50.8976 30.115 50.8512 29.8867 50.7144 29.6775C50.6638 29.6037 50.6064 29.534 50.5435 29.4683C50.2879 29.2209 49.6644 29.0732 49.0013 28.9174C47.909 28.6576 46.7414 28.3828 45.8308 27.449C45.4931 27.1045 45.2498 26.693 45.098 26.2473C44.8998 25.6662 44.8656 25.0223 44.9969 24.4139C45.1322 23.7932 45.4426 23.2012 45.9347 22.724C46.2916 22.3754 46.7373 22.0924 47.276 21.9105C47.4004 21.8682 47.5316 21.8326 47.667 21.7984L47.6861 21.7943V20.6199C47.6861 20.0074 48.1824 19.507 48.799 19.507C49.4115 19.507 49.9119 20.0074 49.9119 20.6199V21.7478C50.1402 21.7943 50.3658 21.8558 50.5818 21.9379C51.5894 22.3098 52.4385 23.0344 52.8213 24.1705C52.8527 24.2635 52.8828 24.3687 52.9101 24.4767C53.0578 25.0701 52.6928 25.6703 52.0967 25.818C51.5033 25.9615 50.9031 25.6006 50.7554 25.0045C50.7472 24.9689 50.7363 24.9266 50.7199 24.8842C50.5763 24.4576 50.2318 24.1746 49.8176 24.0242C49.3131 23.8383 48.7252 23.8232 48.1974 23.9504C48.1318 23.9695 48.058 23.9887 47.9883 24.0119C47.775 24.0857 47.6082 24.1896 47.481 24.3099C47.3183 24.4685 47.2131 24.6709 47.1666 24.8842C47.1201 25.1057 47.131 25.334 47.198 25.5391C47.2486 25.6785 47.3224 25.807 47.4195 25.9068C47.8734 26.3717 48.7142 26.5699 49.5045 26.7558C50.4738 26.9842 51.3885 27.2016 52.0857 27.8797C52.2799 28.0697 52.4426 28.2639 52.5697 28.4648C53.0154 29.143 53.159 29.9031 53.0619 30.6277C52.9648 31.3373 52.6353 32.0072 52.124 32.5308C51.9463 32.7168 51.7439 32.8836 51.5306 33.023C51.3256 33.1543 51.1 33.2746 50.8607 33.3758C50.5627 33.5002 50.24 33.5932 49.9119 33.6547V34.7484H49.9133Z" fill="#FFE07D"/>
<path fill-rule="evenodd" clip-rule="evenodd" d="M5.06543 25.7879H10.1227V38.1897H5.06543V25.7879Z" fill="#FF0000"/>
<path fill-rule="evenodd" clip-rule="evenodd" d="M14.3828 19.5918H19.4441V38.1896H14.3828V19.5918Z" fill="#2EBD33"/>
<path fill-rule="evenodd" clip-rule="evenodd" d="M23.7029 15.9141H28.7601V38.191H23.7029V15.9141Z" fill="#FAD207"/>
<path d="M23.0207 2.31875C22.4124 2.32695 21.9079 1.83886 21.8969 1.22636C21.8887 0.617966 22.3768 0.113474 22.9866 0.102536L28.7452 -2.81485e-06C29.3536 -0.0109403 29.8581 0.477146 29.869 1.08965C29.869 1.19765 29.854 1.30293 29.8266 1.4041H29.8307L28.2653 6.94531C28.1026 7.53457 27.4901 7.8791 26.9008 7.7123C26.3075 7.54961 25.967 6.93711 26.1297 6.34785L26.7846 4.03047L7.20923 19.1256C6.72934 19.5016 6.03071 19.4127 5.65884 18.9273C5.28286 18.4434 5.37173 17.7447 5.85708 17.3728L25.4325 2.27226L23.0207 2.31875Z" fill="#CFCFCF"/>
<path fill-rule="evenodd" clip-rule="evenodd" d="M2.67151 46.1535H13.2631C14.0301 46.1535 14.6576 46.7851 14.6576 47.5521V67.8603C14.6576 68.6273 14.0301 69.2549 13.2631 69.2549H2.67151C1.90452 69.2549 1.27698 68.6273 1.27698 67.8603V47.5535C1.27561 46.7851 1.90315 46.1535 2.67151 46.1535Z" fill="#5C9CEE"/>
<path fill-rule="evenodd" clip-rule="evenodd" d="M2.67149 46.1535H4.83849C4.07149 46.1535 3.44395 46.7851 3.44395 47.5521V69.2549H2.67286C1.90587 69.2549 1.27833 68.6273 1.27833 67.8603V47.5535C1.27559 46.7851 1.90313 46.1535 2.67149 46.1535Z" fill="#538CD6"/>
<path d="M0.164087 13.0102C0.164087 12.3977 0.660376 11.9014 1.27698 11.9014C1.88948 11.9014 2.38577 12.3977 2.38577 13.0102V37.0768H31.9594C32.5719 37.0768 33.0723 37.5771 33.0723 38.1896C33.0723 38.8021 32.5719 39.3025 31.9594 39.3025H1.27561C0.659009 39.3025 0.16272 38.8021 0.16272 38.1896V13.0102H0.164087Z" fill="#CFCFCF"/>
</g>
<defs>
<clipPath id="clip0_15_76">
<rect width="70" height="70" fill="white"/>
</clipPath>
</defs>
</svg>
