<svg width="70" height="70" viewBox="0 0 70 70" fill="none" xmlns="http://www.w3.org/2000/svg">
<g clip-path="url(#clip0_15_76)">
<g clip-path="url(#clip1_15_76)">
<path d="M35 70C34.6869 70 34.3738 69.9284 34.0859 69.7851L1.13668 53.2421C0.441468 52.8958 0.00137038 52.1864 3.19306e-06 51.4097C-0.00136399 50.633 0.436409 49.922 1.13067 49.5735L34.0799 33.0306C34.6588 32.7399 35.3414 32.7399 35.9203 33.0306L68.8695 49.5735C69.5636 49.922 70.0014 50.633 70.0001 51.4097C69.9988 52.1865 69.5588 52.8958 68.8635 53.2421L35.9142 69.7851C35.6262 69.9284 35.3131 70 35 70Z" fill="url(#paint0_linear_15_76)"/>
<path d="M35 53.457C34.6869 53.457 34.3738 53.3854 34.0859 53.2421L1.13668 36.8359C0.441468 36.4895 0.00137038 35.7801 3.19306e-06 35.0034C-0.00136399 34.2266 0.436409 33.5158 1.13067 33.1673L34.0799 16.6243C34.6588 16.3336 35.3414 16.3336 35.9203 16.6243L68.8695 33.1673C69.5636 33.5158 70.0014 34.2267 70.0001 35.0034C69.9988 35.7802 69.5588 36.4895 68.8635 36.8359L35.9142 53.2421C35.6262 53.3854 35.3131 53.457 35 53.457Z" fill="url(#paint1_linear_15_76)"/>
<path d="M35 37.051C34.6869 37.051 34.3738 36.9793 34.0859 36.836L1.13668 20.4298C0.441468 20.0835 0.00137038 19.374 3.19306e-06 18.5973C-0.00136399 17.8206 0.436409 17.1097 1.13067 16.7612L34.0799 0.218242C34.6588 -0.0724219 35.3414 -0.0724219 35.9203 0.218242L68.8695 16.7612C69.5636 17.1097 70.0014 17.8206 70.0001 18.5973C69.9988 19.3742 69.5588 20.0835 68.8635 20.4298L35.9142 36.836C35.6262 36.9793 35.3131 37.051 35 37.051Z" fill="url(#paint2_linear_15_76)"/>
</g>
</g>
<defs>
<linearGradient id="paint0_linear_15_76" x1="35" y1="70" x2="35" y2="32.8125" gradientUnits="userSpaceOnUse">
<stop stop-color="#A93AFF"/>
<stop offset="1" stop-color="#FF81FF"/>
</linearGradient>
<linearGradient id="paint1_linear_15_76" x1="35" y1="53.457" x2="35" y2="16.4062" gradientUnits="userSpaceOnUse">
<stop stop-color="#FFBEF9"/>
<stop offset="1" stop-color="#FFF1FF"/>
</linearGradient>
<linearGradient id="paint2_linear_15_76" x1="35" y1="37.051" x2="35" y2="0.00017568" gradientUnits="userSpaceOnUse">
<stop stop-color="#A93AFF"/>
<stop offset="1" stop-color="#FF81FF"/>
</linearGradient>
<clipPath id="clip0_15_76">
<rect width="70" height="70" fill="white"/>
</clipPath>
<clipPath id="clip1_15_76">
<rect width="70" height="70" fill="white"/>
</clipPath>
</defs>
</svg>
