<svg width="310" height="274" viewBox="0 0 310 274" fill="none" xmlns="http://www.w3.org/2000/svg">
<path fill-rule="evenodd" clip-rule="evenodd" d="M139.869 251.162H96.9183C94.922 251.162 93.3042 249.544 93.3042 247.548V139.899C93.3042 137.903 94.922 136.285 96.9183 136.285H139.869C141.864 136.285 143.483 137.903 143.483 139.899V247.548C143.483 249.544 141.864 251.162 139.869 251.162ZM100.532 243.934H136.255V143.513H100.532V243.934Z" fill="#FC0005"/>
<path fill-rule="evenodd" clip-rule="evenodd" d="M139.865 251.162C139.252 251.162 138.631 251.006 138.062 250.677L95.1111 225.896C93.9842 225.246 93.2941 224.041 93.3033 222.74C93.3133 221.439 94.0212 220.243 95.158 219.61L132.544 198.76L95.1118 177.165C93.945 176.492 93.2492 175.226 93.3069 173.879C93.3638 172.534 94.1656 171.332 95.3857 170.761L132.752 153.275L118.208 142.834C116.586 141.669 116.215 139.411 117.38 137.789C118.544 136.168 120.803 135.798 122.423 136.961L141.976 150.999C143.018 151.747 143.586 152.992 143.467 154.269C143.349 155.546 142.562 156.665 141.4 157.209L104.73 174.369L141.674 195.683C142.801 196.333 143.492 197.538 143.483 198.84C143.473 200.14 142.765 201.337 141.629 201.97L104.242 222.82L141.674 244.416C143.403 245.414 143.996 247.624 142.998 249.353C142.329 250.513 141.114 251.162 139.865 251.162Z" fill="#FC0005"/>
<path fill-rule="evenodd" clip-rule="evenodd" d="M160.242 273.738H76.5448C74.5492 273.738 72.9307 272.119 72.9307 270.124V247.548C72.9307 245.553 74.5492 243.934 76.5448 243.934H160.242C162.237 243.934 163.856 245.553 163.856 247.548V270.124C163.856 272.119 162.238 273.738 160.242 273.738ZM80.1589 266.51H156.627V251.162H80.1589V266.51Z" fill="#FC0005"/>
<path fill-rule="evenodd" clip-rule="evenodd" d="M289.862 126.715H162.717C160.72 126.715 159.102 125.097 159.102 123.101V94.4635C159.102 92.4679 160.72 90.8494 162.717 90.8494H269.702C270.878 90.8494 271.98 91.4214 272.657 92.3825L292.817 121.02C293.593 122.124 293.691 123.568 293.07 124.765C292.449 125.963 291.211 126.715 289.862 126.715ZM166.331 119.487H282.898L267.826 98.0776H166.331L166.331 119.487ZM74.0674 126.715H31.9423C29.946 126.715 28.3281 125.097 28.3281 123.101V94.4635C28.3281 92.4679 29.946 90.8494 31.9423 90.8494H74.0674C76.063 90.8494 77.6815 92.4679 77.6815 94.4635V123.101C77.6815 125.097 76.0637 126.715 74.0674 126.715ZM35.5557 119.487H70.4532V98.0776H35.5557V119.487Z" fill="#FC0005"/>
<path fill-rule="evenodd" clip-rule="evenodd" d="M132.554 81.2803H104.231C103.182 81.2803 102.185 80.825 101.498 80.0325C100.811 79.2399 100.503 78.1877 100.653 77.1504L105.23 45.4436C105.487 43.6657 107.011 42.3459 108.807 42.3459H127.976C129.773 42.3459 131.297 43.6657 131.553 45.4443L136.13 77.1504C136.28 78.1884 135.972 79.2399 135.286 80.0325C134.598 80.825 133.602 81.2803 132.554 81.2803ZM108.404 74.0521H128.381L124.847 49.5742H111.937L108.404 74.0521Z" fill="#FC0005"/>
<path fill-rule="evenodd" clip-rule="evenodd" d="M141.242 143.512H95.5439C88.9929 143.512 83.6621 138.182 83.6621 131.629V85.9328C83.6621 79.3812 88.9922 74.051 95.5439 74.051H141.242C147.794 74.051 153.124 79.3812 153.124 85.9328V131.63C153.124 138.182 147.794 143.512 141.242 143.512ZM95.5439 81.2793C92.9784 81.2793 90.8904 83.3666 90.8904 85.9328V131.63C90.8904 134.196 92.9777 136.284 95.5439 136.284H141.242C143.808 136.284 145.896 134.196 145.896 131.629L145.895 85.9328C145.895 83.3666 143.808 81.2793 141.242 81.2793L95.5439 81.2793Z" fill="#FC0005"/>
<path fill-rule="evenodd" clip-rule="evenodd" d="M135.237 129.24H101.551C99.5543 129.24 97.9365 127.621 97.9365 125.625V91.9381C97.9365 89.9418 99.5543 88.324 101.551 88.324H135.237C137.233 88.324 138.851 89.9425 138.851 91.9381V125.625C138.851 127.622 137.233 129.24 135.237 129.24ZM105.165 122.011H131.623V95.5522H105.165V122.011Z" fill="#FC0005"/>
<path fill-rule="evenodd" clip-rule="evenodd" d="M31.9428 139.24H4.41295C2.41736 139.24 0.798828 137.621 0.798828 135.626V81.939C0.798828 79.9428 2.41735 78.3249 4.41295 78.3249L31.9428 78.3242C33.9391 78.3242 35.5569 79.9427 35.5569 81.9383V135.625C35.5569 137.621 33.9391 139.24 31.9428 139.24ZM8.02708 132.012H28.3287V85.5532L8.02708 85.5525V132.012Z" fill="#FC0005"/>
<path fill-rule="evenodd" clip-rule="evenodd" d="M269.699 98.0787C269.086 98.0787 268.466 97.9229 267.897 97.5949L124.572 14.9952C122.843 13.9985 122.249 11.7888 123.246 10.0592C124.242 8.32972 126.453 7.73639 128.182 8.73311L271.507 91.3328C273.236 92.3288 273.83 94.5393 272.833 96.2688C272.164 97.4291 270.949 98.0787 269.699 98.0787Z" fill="#FC0005"/>
<path fill-rule="evenodd" clip-rule="evenodd" d="M118.391 49.5739C116.396 49.5739 114.777 47.9554 114.777 45.9598V19.847C114.777 17.8514 116.396 16.2329 118.391 16.2329C120.387 16.2329 122.006 17.8514 122.006 19.847V45.9598C122.006 47.9554 120.388 49.5739 118.391 49.5739Z" fill="#FC0005"/>
<path fill-rule="evenodd" clip-rule="evenodd" d="M118.392 23.4611C111.996 23.4611 106.793 18.2584 106.793 11.8632C106.793 5.46737 111.996 0.263184 118.392 0.263184C124.787 0.263184 129.991 5.46667 129.991 11.8632C129.991 18.2584 124.787 23.4611 118.392 23.4611ZM118.392 7.49213C115.982 7.49213 114.021 9.45216 114.021 11.8632C114.021 14.2722 115.982 16.2336 118.392 16.2336C120.801 16.2336 122.763 14.2729 122.763 11.8632C122.763 9.45216 120.802 7.49213 118.392 7.49213Z" fill="#FC0005"/>
<path fill-rule="evenodd" clip-rule="evenodd" d="M31.942 98.0768C31.0484 98.0768 30.1527 97.7474 29.4534 97.0829C28.007 95.7084 27.9472 93.4204 29.3225 91.9734L107.787 9.37368C109.162 7.9266 111.449 7.86684 112.897 9.24205C114.343 10.6166 114.403 12.9046 113.029 14.3509L34.5629 96.952C33.8522 97.6998 32.8982 98.0768 31.942 98.0768Z" fill="#FC0005"/>
<path fill-rule="evenodd" clip-rule="evenodd" d="M272.371 141.495H220.797C218.801 141.495 217.183 139.877 217.183 137.881V123.1C217.183 121.105 218.801 119.486 220.797 119.486H272.371C274.367 119.486 275.985 121.105 275.985 123.1V137.881C275.985 139.877 274.368 141.495 272.371 141.495ZM224.411 134.267H268.757V126.714H224.411V134.267Z" fill="#FC0005"/>
<path fill-rule="evenodd" clip-rule="evenodd" d="M246.583 202.449C244.587 202.449 242.969 200.831 242.969 198.835V168.772C242.969 166.777 244.587 165.158 246.583 165.158C248.578 165.158 250.197 166.777 250.197 168.772V198.835C250.197 200.831 248.578 202.449 246.583 202.449Z" fill="#FC0005"/>
<path fill-rule="evenodd" clip-rule="evenodd" d="M294.586 221.477H198.579C196.584 221.477 194.965 219.859 194.965 217.863V198.833C194.965 196.837 196.584 195.219 198.579 195.219H294.586C296.582 195.219 298.2 196.837 298.2 198.833V217.863C298.2 219.86 296.582 221.477 294.586 221.477ZM202.194 214.249H290.972V202.447H202.194V214.249Z" fill="#FC0005"/>
<path fill-rule="evenodd" clip-rule="evenodd" d="M305.587 240.508H187.578C185.582 240.508 183.964 238.889 183.964 236.893V217.863C183.964 215.868 185.582 214.249 187.578 214.249H305.587C307.582 214.249 309.201 215.868 309.201 217.863V236.893C309.201 238.889 307.583 240.508 305.587 240.508ZM191.192 233.279H301.973V221.477H191.192V233.279Z" fill="#FC0005"/>
<path fill-rule="evenodd" clip-rule="evenodd" d="M212.811 202.449C211.968 202.449 211.121 202.156 210.437 201.558C208.933 200.245 208.777 197.962 210.09 196.459L236.331 166.396C237.644 164.893 239.927 164.738 241.431 166.05C242.935 167.363 243.09 169.646 241.777 171.149L215.536 201.212C214.821 202.031 213.818 202.449 212.811 202.449Z" fill="#FC0005"/>
<path fill-rule="evenodd" clip-rule="evenodd" d="M280.355 202.449C279.347 202.449 278.345 202.031 277.63 201.211L251.389 171.149C250.077 169.645 250.232 167.362 251.736 166.049C253.238 164.737 255.523 164.892 256.835 166.395L283.076 196.458C284.389 197.961 284.234 200.244 282.73 201.558C282.045 202.156 281.199 202.449 280.355 202.449Z" fill="#FC0005"/>
<path fill-rule="evenodd" clip-rule="evenodd" d="M254.113 172.385H239.054C237.058 172.385 235.439 170.766 235.439 168.771V137.881C235.439 135.885 237.058 134.267 239.054 134.267H254.113C256.108 134.267 257.727 135.885 257.727 137.881V168.771C257.727 170.767 256.108 172.385 254.113 172.385ZM242.668 165.157H250.499V141.495H242.668V165.157Z" fill="#FC0005"/>
<path fill-rule="evenodd" clip-rule="evenodd" d="M87.2759 131.057H74.0687C72.0731 131.057 70.4546 129.439 70.4546 127.443V90.1205C70.4546 88.1249 72.0731 86.5063 74.0687 86.5063H87.2759C89.2722 86.5063 90.89 88.1249 90.89 90.1205V127.443C90.89 129.439 89.2722 131.057 87.2759 131.057ZM77.6828 123.829H83.6625V93.7346H77.6828V123.829Z" fill="#FC0005"/>
<path fill-rule="evenodd" clip-rule="evenodd" d="M162.717 131.057H149.509C147.514 131.057 145.895 129.439 145.895 127.443V90.1205C145.895 88.1249 147.514 86.5063 149.509 86.5063H162.717C164.713 86.5063 166.331 88.1249 166.331 90.1205V127.443C166.331 129.439 164.713 131.057 162.717 131.057ZM153.123 123.829H159.103V93.7346H153.123V123.829Z" fill="#FC0005"/>
<path fill-rule="evenodd" clip-rule="evenodd" d="M286.281 273.738H30.5687C28.5731 273.738 26.9546 272.119 26.9546 270.123C26.9546 268.128 28.5731 266.509 30.5687 266.509H286.281C288.276 266.509 289.895 268.128 289.895 270.123C289.895 272.119 288.277 273.738 286.281 273.738Z" fill="#FC0005"/>
</svg>
