<svg width="54" height="63" viewBox="0 0 54 63" fill="none" xmlns="http://www.w3.org/2000/svg">
<path d="M4.36082 13.2632C3.95805 13.2632 3.63184 13.5897 3.63184 13.9922V24.0422C3.63184 24.4449 3.95832 24.7711 4.36082 24.7711H25.663C26.0657 24.7711 26.392 24.4447 26.392 24.0422V13.9922C26.392 13.5895 26.0655 13.2632 25.663 13.2632H4.36082Z" fill="#5A7A39"/>
<path d="M4.36082 11.5789C3.95805 11.5789 3.63184 11.9053 3.63184 12.3078V22.3578C3.63184 22.7605 3.95832 23.0867 4.36082 23.0867H25.663C26.0657 23.0867 26.392 22.7603 26.392 22.3578V12.3078C26.392 11.9051 26.0655 11.5789 25.663 11.5789H4.36082Z" fill="#648940"/>
<path d="M4.36082 9.89447C3.95805 9.89447 3.63184 10.221 3.63184 10.6235V20.6734C3.63184 21.0762 3.95832 21.4024 4.36082 21.4024H25.663C26.0657 21.4024 26.392 21.0759 26.392 20.6734V10.6237C26.392 10.221 26.0655 9.89474 25.663 9.89474L4.36082 9.89447Z" fill="#91B56B"/>
<path d="M22.7768 11.1118C22.7664 10.9849 22.6625 10.8865 22.5351 10.8865H7.48837C7.36122 10.8865 7.25704 10.9849 7.24665 11.1118C7.1411 12.4158 6.1272 13.4557 4.85462 13.5659C4.72829 13.5768 4.63013 13.6805 4.63013 13.8073V17.4894C4.63013 17.6163 4.72802 17.72 4.85462 17.7309C6.1272 17.8411 7.1411 18.8812 7.24665 20.185C7.25704 20.3119 7.36095 20.4103 7.48837 20.4103H22.5354C22.6625 20.4103 22.7667 20.3119 22.7771 20.185C22.8826 18.881 23.8965 17.8411 25.1691 17.7309C25.2954 17.72 25.3936 17.6163 25.3936 17.4894V13.8076C25.3936 13.6807 25.2957 13.5771 25.1691 13.5662C23.8963 13.4557 22.8824 12.4158 22.7768 11.1118Z" fill="#76A34F"/>
<path d="M18.6652 16.5061C19.1464 14.4882 17.9006 12.4624 15.8827 11.9812C13.8648 11.5001 11.8389 12.7459 11.3578 14.7638C10.8766 16.7817 12.1224 18.8075 14.1403 19.2887C16.1582 19.7698 18.1841 18.524 18.6652 16.5061Z" fill="#91B56B"/>
<path d="M14.598 13.6655H15.4254C15.8345 13.6655 16.1672 13.9982 16.1672 14.4073C16.1672 14.5689 16.2982 14.6996 16.4596 14.6996C16.6212 14.6996 16.7519 14.5686 16.7519 14.4073C16.7519 13.6758 16.1566 13.0806 15.4251 13.0806H14.5977C13.8663 13.0806 13.271 13.6758 13.271 14.4073C13.271 15.1387 13.8663 15.734 14.5977 15.734H15.4251C15.8342 15.734 16.167 16.0668 16.167 16.4758V16.8896C16.167 17.2986 15.8342 17.6314 15.4251 17.6314H14.5977C14.1887 17.6314 13.8559 17.2986 13.8559 16.8896C13.8559 16.7279 13.7249 16.5972 13.5636 16.5972C13.402 16.5972 13.2713 16.7282 13.2713 16.8896C13.2713 17.621 13.8665 18.2163 14.598 18.2163H15.4254C16.1569 18.2163 16.7521 17.621 16.7521 16.8896V16.4758C16.7521 15.7444 16.1569 15.1491 15.4254 15.1491H14.598C14.1889 15.1491 13.8562 14.8163 13.8562 14.4073C13.8562 13.9985 14.1889 13.6655 14.598 13.6655Z" fill="white"/>
<path d="M14.7194 12.9594V18.3377C14.7194 18.4993 14.8503 18.63 15.0117 18.63C15.1733 18.63 15.3042 18.499 15.3042 18.3377V12.9594C15.3042 12.7978 15.1733 12.6671 15.0117 12.6671C14.8503 12.6671 14.7194 12.7978 14.7194 12.9594Z" fill="white"/>
<path d="M0.415061 30.5043C0.690412 32.8876 1.7076 41.0256 3.25334 45.7542C5.07826 51.3413 10.5317 53.0323 13.7892 55.5794C15.7743 57.0461 16.4522 59.8551 16.3507 61.8323L16.3677 61.8572C16.5471 62.0948 16.8951 62.1189 17.1057 61.9083L22.179 56.8347C23.94 55.0738 24.3171 52.3473 23.0762 50.188C22.1205 48.5247 20.6068 47.079 19.2161 45.3905C17.4767 43.1407 16.1295 40.6059 15.3122 37.8789C15.2203 37.2664 14.6382 37.0906 14.1572 37.4239C12.4578 38.6027 11.7474 41.0451 12.8135 42.6925L13.3653 43.5694C13.5548 43.8781 13.1778 44.2033 12.8868 43.9982C9.53612 42.3674 7.57092 39.2672 6.1999 35.78C5.29264 33.4755 4.50487 29.1245 1.12408 29.6083C0.695334 29.6706 0.366389 30.0862 0.415061 30.5043Z" fill="#FCC4AE"/>
<path d="M17.7348 60.4903L17.7179 60.4654C17.8193 58.4879 17.1415 55.6792 15.1563 54.2125C11.8986 51.6654 6.44513 49.9744 4.62048 44.3873C3.1595 39.9174 2.17048 32.4009 1.83415 29.5787C1.61103 29.5642 1.37478 29.5733 1.12431 29.6094C0.695557 29.6709 0.366612 30.0865 0.41501 30.5049C0.690362 32.8882 1.70755 41.0262 3.25329 45.7548C5.07821 51.3419 10.5317 53.0328 13.7891 55.5799C15.7743 57.0466 16.4521 59.8557 16.3507 61.8329L16.3676 61.8578C16.547 62.0954 16.8951 62.1194 17.1056 61.9089L18.4723 60.5423C18.2617 60.7517 17.9142 60.7276 17.7348 60.4903Z" fill="#F2AD97"/>
<path d="M53.585 30.5043C53.3096 32.8876 52.2924 41.0256 50.7467 45.7542C48.9218 51.3413 43.4683 53.0323 40.2109 55.5794C38.2257 57.0461 37.5478 59.8551 37.6493 61.8323L37.6323 61.8572C37.453 62.0948 37.1049 62.1189 36.8943 61.9083L31.821 56.8347C30.06 55.0738 29.6832 52.3473 30.9238 50.188C31.8795 48.5247 33.3932 47.079 34.7839 45.3905C36.5233 43.1407 37.8705 40.6059 38.6878 37.8789C38.7797 37.2664 39.3618 37.0906 39.8428 37.4239C41.5422 38.6027 42.2526 41.0451 41.1865 42.6925L40.6347 43.5694C40.4452 43.8781 40.8223 44.2033 41.1132 43.9982C44.4639 42.3674 46.4291 39.2672 47.8001 35.78C48.7074 33.4755 49.4952 29.1245 52.8759 29.6083C53.3047 29.6706 53.6336 30.0862 53.585 30.5043Z" fill="#FCC4AE"/>
<path d="M52.8759 29.6091C52.6255 29.5733 52.3892 29.5642 52.1661 29.5784C51.8297 32.4006 50.8407 39.9171 49.3797 44.387C47.5548 49.9741 42.1014 51.6651 38.8439 54.2122C36.8588 55.6789 36.1809 58.4879 36.2824 60.4651L36.2654 60.49C36.086 60.7274 35.7385 60.7517 35.528 60.5417L36.8946 61.9083C37.1051 62.1189 37.4532 62.0948 37.6326 61.8572L37.6496 61.8323C37.5481 59.8548 38.226 57.0461 40.2111 55.5793C43.4689 53.0323 48.9223 51.3413 50.7469 45.7542C52.2927 41.0256 53.3099 32.8876 53.5852 30.5043C53.6336 30.0862 53.3047 29.6706 52.8759 29.6091Z" fill="#F2AD97"/>
<path d="M16.803 20.33L14.0022 28.9742C12.5409 33.4864 15.905 38.113 20.6481 38.113H33.3522C34.7271 38.113 35.986 37.7244 37.0445 37.0622C39.6397 35.4407 41.0356 32.1789 39.9981 28.9744L36.9739 19.7022C33.3949 10.4466 19.9355 10.6558 16.803 20.33Z" fill="#8C3F0A"/>
<path d="M39.9981 28.9742L36.9739 19.7019C36.1345 17.5311 34.7476 15.8877 33.0818 14.7584C33.5332 15.4237 33.9262 16.1571 34.2395 16.9675L37.2637 26.2398C38.3012 29.4442 36.9053 32.706 34.3101 34.3275C33.2516 34.9898 31.9927 35.3783 30.6179 35.3783H17.9137C16.6731 35.3783 15.5282 35.0595 14.5381 34.5113C15.712 36.6233 17.9577 38.1127 20.648 38.1127H33.3522C34.7271 38.1127 35.986 37.7242 37.0445 37.0619C39.6396 35.4404 41.0355 32.1789 39.9981 28.9742Z" fill="#7C3108"/>
<path d="M25.3006 0.535828C23.2507 0.535828 21.7965 2.5352 22.4282 4.48536L24.1276 9.7318C25.0296 12.517 28.9701 12.517 29.8722 9.7318L31.5716 4.48536C32.2033 2.5352 30.7494 0.535828 28.6992 0.535828H25.3006Z" fill="#8C3F0A"/>
<path d="M28.9701 0.55249C29.0048 0.942412 28.9679 1.34737 28.8372 1.75124L27.1378 6.99769C26.6426 8.52647 25.2322 9.2139 23.9113 9.0646L24.1275 9.73206C25.0296 12.5173 28.9701 12.5173 29.8722 9.73206L31.5716 4.48562C32.1751 2.62269 30.8743 0.719834 28.9701 0.55249Z" fill="#7C3108"/>
<path d="M24.7767 9.39545C23.6895 9.39545 22.8082 10.2767 22.8082 11.3639C22.8082 12.4508 23.6895 13.3324 24.7767 13.3324H29.2236C30.3108 13.3324 31.1921 12.4511 31.1921 11.3639C31.1921 10.2767 30.3108 9.39545 29.2236 9.39545H24.7767Z" fill="#FCC4AE"/>
<path d="M29.751 9.4693C29.7978 9.63746 29.8246 9.81383 29.8246 9.99676C29.8246 11.0837 28.9433 11.965 27.8561 11.965H23.4092C23.2262 11.965 23.0499 11.9382 22.8817 11.8914C23.1125 12.7218 23.8724 13.3322 24.7764 13.3322H29.2233C30.3105 13.3322 31.1918 12.4509 31.1918 11.3639C31.1918 10.4597 30.5814 9.70008 29.751 9.4693Z" fill="#F2AD97"/>
<path d="M26.6757 17.3366C22.7125 17.457 19.4504 20.6485 19.2494 24.6087C19.0594 28.3526 21.554 31.5458 24.9777 32.4364C25.1811 32.4895 25.3591 32.6125 25.4696 32.7913L26.5713 34.5714C26.729 34.8265 27.1001 34.8265 27.2579 34.5714L28.3582 32.7938C28.4697 32.6136 28.6491 32.4895 28.8542 32.4359C32.1538 31.5764 34.5901 28.5777 34.5901 25.009C34.5906 20.6901 31.0242 17.2046 26.6757 17.3366Z" fill="#FFA91A"/>
<path d="M21.8047 28.7488C21.616 28.7488 21.441 28.6531 21.3399 28.4945C21.3399 28.4945 21.3399 28.4945 21.3399 28.4918C21.1785 28.2375 21.2578 27.8984 21.5121 27.7398C21.761 27.584 22.1137 27.6633 22.2668 27.9121C22.4281 28.1691 22.3489 28.5055 22.0946 28.6668C22.0071 28.7215 21.9059 28.7488 21.8047 28.7488ZM20.9981 26.7281C20.7383 26.7281 20.5114 26.5422 20.4621 26.2879C20.3774 25.8613 20.3336 25.4266 20.3336 24.9973C20.3336 24.8852 20.3364 24.773 20.3418 24.6637C20.4266 23.0203 21.1266 21.4754 22.316 20.3133C23.5028 19.1512 25.0641 18.4812 26.7102 18.4293C28.2442 18.3801 29.718 18.8586 30.9321 19.7965C31.1699 19.9797 31.2137 20.3242 31.0305 20.5648C30.85 20.7945 30.4946 20.841 30.2621 20.6633C29.2942 19.9168 28.1375 19.5203 26.9153 19.5203C26.8496 19.5203 26.7949 19.5203 26.743 19.523C23.9074 19.6078 21.575 21.891 21.4328 24.7211C21.4301 24.8086 21.4274 24.9016 21.4274 24.9973C21.4274 25.3582 21.4629 25.7191 21.534 26.0746V26.0773C21.5614 26.2195 21.534 26.3644 21.452 26.4848C21.3727 26.6051 21.2496 26.6898 21.1047 26.7172C21.0692 26.7254 21.0336 26.7281 20.9981 26.7281Z" fill="#FFC91D"/>
<path d="M30.7978 18.3869C31.469 19.5274 31.8562 20.8552 31.8562 22.2741C31.8562 25.843 29.4202 28.8415 26.1203 29.7009C25.9152 29.7545 25.7356 29.8784 25.6243 30.0589L24.524 31.8365C24.3662 32.0916 23.9952 32.0916 23.8374 31.8365L22.7357 30.0564C22.6252 29.8776 22.447 29.7545 22.2438 29.7015C21.5512 29.5213 20.8974 29.2457 20.2953 28.8913C21.3127 30.6213 22.9878 31.9182 24.9782 32.4358C25.1816 32.4889 25.3596 32.6119 25.4701 32.7908L26.5718 34.5708C26.7295 34.826 27.1006 34.826 27.2584 34.5708L28.3587 32.7932C28.4702 32.613 28.6496 32.4889 28.8547 32.4353C32.1543 31.5759 34.5906 28.5771 34.5906 25.0085C34.5906 22.1863 33.067 19.7205 30.7978 18.3869Z" fill="#F79219"/>
<path d="M31.6175 18.9439C32.6238 20.2422 33.2234 21.8716 33.2234 23.6413C33.2234 27.2102 30.7874 30.2087 27.4875 31.0681C27.2824 31.1217 27.1028 31.2456 26.9915 31.4261L25.8912 33.2037C25.8641 33.2477 25.8288 33.2811 25.7914 33.31L26.5718 34.5709C26.7295 34.826 27.1006 34.826 27.2584 34.5709L28.3587 32.7932C28.4702 32.613 28.6496 32.4889 28.8547 32.4353C32.1543 31.5759 34.5906 28.5771 34.5906 25.0085C34.5906 22.5418 33.4258 20.3483 31.6175 18.9439Z" fill="#EF7816"/>
<path d="M26.2601 22.3939H27.5696C28.2239 22.3939 28.7563 22.9263 28.7563 23.5809C28.7563 23.8297 28.9579 24.0312 29.2067 24.0312C29.4555 24.0312 29.657 23.8297 29.657 23.5809C29.657 22.43 28.7208 21.4935 27.5699 21.4935H26.2604C25.1095 21.4935 24.1732 22.43 24.1732 23.5809C24.1732 24.7318 25.1095 25.668 26.2604 25.668H27.5699C28.2242 25.668 28.7566 26.2004 28.7566 26.8548V27.5096C28.7566 28.164 28.2242 28.6964 27.5699 28.6964H26.2604C25.6061 28.6964 25.0737 28.164 25.0737 27.5096C25.0737 27.2608 24.8722 27.0593 24.6233 27.0593C24.3748 27.0593 24.173 27.2608 24.173 27.5096C24.173 28.6605 25.1092 29.5968 26.2601 29.5968H27.5696C28.7205 29.5968 29.6568 28.6605 29.6568 27.5096V26.8548C29.6568 25.7039 28.7205 24.7676 27.5696 24.7676H26.2601C25.6058 24.7676 25.0734 24.2352 25.0734 23.5809C25.0734 22.9266 25.6058 22.3939 26.2601 22.3939Z" fill="white"/>
<path d="M26.4646 21.2889V29.8013C26.4646 30.0501 26.6661 30.2516 26.915 30.2516C27.1635 30.2516 27.3653 30.0501 27.3653 29.8013V21.2889C27.3653 21.0401 27.1638 20.8386 26.915 20.8386C26.6664 20.8388 26.4646 21.0404 26.4646 21.2889Z" fill="white"/>
<path d="M49.1653 19.13C50.8838 16.0974 49.8185 12.2459 46.7859 10.5275C43.7533 8.809 39.9018 9.87431 38.1833 12.9069C36.4649 15.9395 37.5302 19.791 40.5628 21.5095C43.5954 23.2279 47.4469 22.1626 49.1653 19.13Z" fill="#FFA91A"/>
<path d="M47.3884 10.9089C48.1538 11.9532 48.6066 13.2411 48.6066 14.6351C48.6066 18.1209 45.7809 20.9466 42.2951 20.9466C40.9011 20.9466 39.6132 20.4937 38.569 19.7284C39.7174 21.2955 41.5705 22.3137 43.6623 22.3137C47.1481 22.3137 49.9738 19.488 49.9738 16.0023C49.9738 13.9105 48.9555 12.0574 47.3884 10.9089Z" fill="#F79219"/>
<path d="M44.1653 15.4406H43.9723V13.5449H44.1653C44.6881 13.5449 45.1133 13.9701 45.1133 14.4929C45.1133 14.6638 45.2522 14.803 45.4234 14.803C45.5943 14.803 45.7335 14.6641 45.7335 14.4929C45.7335 13.6283 45.0302 12.925 44.1656 12.925H43.9726V12.732C43.9726 12.5611 43.8336 12.4219 43.6625 12.4219C43.4916 12.4219 43.3524 12.5608 43.3524 12.732V12.925H43.1594C42.2947 12.925 41.5912 13.6283 41.5912 14.4929C41.5912 15.3575 42.2947 16.0608 43.1594 16.0608H43.3524V18.4599H43.1594C42.6365 18.4599 42.2113 18.0347 42.2113 17.5119C42.2113 17.341 42.0724 17.2018 41.9013 17.2018C41.7304 17.2018 41.5912 17.3407 41.5912 17.5119C41.5912 18.3765 42.2947 19.0798 43.1594 19.0798H43.3524V19.2729C43.3524 19.4438 43.4913 19.5829 43.6625 19.5829C43.8334 19.5829 43.9726 19.444 43.9726 19.2729V19.0798H44.1656C45.0302 19.0798 45.7335 18.3765 45.7335 17.5119V17.0085C45.7335 16.1439 45.0299 15.4406 44.1653 15.4406ZM43.1591 13.5446H43.3521V15.4404H43.1591C42.6363 15.4404 42.2111 15.0152 42.2111 14.4923C42.2111 13.9695 42.6363 13.5446 43.1591 13.5446ZM45.1133 17.0085V17.5119C45.1133 18.0347 44.6881 18.4599 44.1653 18.4599H43.9723V16.0608H44.1653C44.6881 16.0605 45.1133 16.4857 45.1133 17.0085Z" fill="white"/>
<path d="M38.5 26.8178C37.8653 26.8178 37.3507 27.3324 37.3507 27.9671C37.3507 28.6017 37.8653 29.1163 38.5 29.1163H48.8244C49.4591 29.1163 49.9737 28.6017 49.9737 27.9671C49.9737 27.3324 49.4591 26.8178 48.8244 26.8178H38.5Z" fill="#FFA91A"/>
<path d="M38.5 29.1166H48.8244C49.4591 29.1166 49.9737 28.602 49.9737 27.9673H37.3507C37.3507 28.602 37.8653 29.1166 38.5 29.1166Z" fill="#F79219"/>
<path d="M38.5 24.5193C37.8653 24.5193 37.3507 25.0339 37.3507 25.6685C37.3507 26.3032 37.8653 26.8178 38.5 26.8178H48.8244C49.4591 26.8178 49.9737 26.3032 49.9737 25.6685C49.9737 25.0336 49.4591 24.5193 48.8244 24.5193H38.5Z" fill="#FFA91A"/>
<path d="M38.5 26.8178H48.8244C49.4591 26.8178 49.9737 26.3032 49.9737 25.6685H37.3507C37.3507 26.3034 37.8653 26.8178 38.5 26.8178Z" fill="#F79219"/>
<path d="M38.5 22.2208C37.8653 22.2208 37.3507 22.7354 37.3507 23.37C37.3507 24.0047 37.8653 24.5193 38.5 24.5193H48.8244C49.4591 24.5193 49.9737 24.0047 49.9737 23.37C49.9737 22.7351 49.4591 22.2208 48.8244 22.2208H38.5Z" fill="#FFA91A"/>
<path d="M38.5 24.5193H48.8244C49.4591 24.5193 49.9737 24.0047 49.9737 23.3701H37.3507C37.3507 24.0047 37.8653 24.5193 38.5 24.5193Z" fill="#F79219"/>
</svg>
