<svg width="70" height="70" viewBox="0 0 70 70" fill="none" xmlns="http://www.w3.org/2000/svg">
<g clip-path="url(#clip0_14_13)">
<g clip-path="url(#clip1_14_13)">
<path d="M49.6666 22.7853C49.4685 22.7853 49.2683 22.7288 49.091 22.6107C48.6125 22.2923 48.4829 21.6463 48.8013 21.1679L60.0401 4.28106C60.3587 3.80255 61.0045 3.6728 61.483 3.99135C61.9616 4.30977 62.0912 4.95577 61.7728 5.43415L50.5339 22.321C50.3334 22.6223 50.003 22.7853 49.6666 22.7853Z" fill="#B1DBFC"/>
<path d="M46.6013 23.5915C46.4446 23.5915 46.2856 23.5559 46.1362 23.481L36.4827 18.6461C35.9688 18.3886 35.7608 17.7634 36.0183 17.2496C36.2756 16.7356 36.9008 16.5276 37.4149 16.7852L47.0683 21.6201C47.5822 21.8776 47.7902 22.5028 47.5327 23.0166C47.3502 23.3809 46.9829 23.5915 46.6013 23.5915Z" fill="#B1DBFC"/>
<path d="M23.1684 29.632C22.9023 29.632 22.6364 29.5307 22.4331 29.3278C22.0264 28.9218 22.0258 28.2629 22.4319 27.8561L32.4658 17.805C32.8717 17.3982 33.5306 17.3976 33.9374 17.8037C34.3442 18.2097 34.3447 18.8686 33.9387 19.2754L23.9047 29.3265C23.7017 29.5301 23.435 29.632 23.1684 29.632Z" fill="#B1DBFC"/>
<path d="M10.4423 36.8769C10.0643 36.8769 9.69992 36.6704 9.51562 36.311C9.25326 35.7996 9.45505 35.1724 9.96652 34.91L18.6211 30.4699C19.1326 30.2073 19.7597 30.4095 20.0219 30.9207C20.2843 31.432 20.0825 32.0593 19.571 32.3217L10.9164 36.7617C10.7644 36.8399 10.6021 36.8769 10.4423 36.8769Z" fill="#B1DBFC"/>
<path d="M8.00224 40.2401C9.77939 40.2401 11.22 38.7995 11.22 37.0223C11.22 35.2452 9.77939 33.8045 8.00224 33.8045C6.22509 33.8045 4.78442 35.2452 4.78442 37.0223C4.78442 38.7995 6.22509 40.2401 8.00224 40.2401Z" fill="#FF656F"/>
<path d="M21.501 33.4793C23.2782 33.4793 24.7188 32.0386 24.7188 30.2615C24.7188 28.4843 23.2782 27.0436 21.501 27.0436C19.7239 27.0436 18.2832 28.4843 18.2832 30.2615C18.2832 32.0386 19.7239 33.4793 21.501 33.4793Z" fill="#FFA85D"/>
<path d="M35 19.9575C36.7772 19.9575 38.2179 18.5169 38.2179 16.7397C38.2179 14.9626 36.7772 13.5219 35 13.5219C33.2229 13.5219 31.7822 14.9626 31.7822 16.7397C31.7822 18.5169 33.2229 19.9575 35 19.9575Z" fill="#FEE55A"/>
<path d="M48.4989 26.7184C50.2761 26.7184 51.7168 25.2777 51.7168 23.5006C51.7168 21.7234 50.2761 20.2828 48.4989 20.2828C46.7218 20.2828 45.2811 21.7234 45.2811 23.5006C45.2811 25.2777 46.7218 26.7184 48.4989 26.7184Z" fill="#43CB8E"/>
<path d="M61.9977 6.43562C63.7749 6.43562 65.2155 4.99496 65.2155 3.21781C65.2155 1.44066 63.7749 0 61.9977 0C60.2206 0 58.7799 1.44066 58.7799 3.21781C58.7799 4.99496 60.2206 6.43562 61.9977 6.43562Z" fill="#23A8FE"/>
<path d="M8.29946 37.0223C8.29946 35.8939 8.88079 34.9018 9.75976 34.3273C9.25444 33.997 8.65097 33.8044 8.00224 33.8044C6.22503 33.8044 4.78442 35.245 4.78442 37.0222C4.78442 38.7994 6.22517 40.24 8.00224 40.24C8.65097 40.24 9.25444 40.0474 9.75976 39.7171C8.88065 39.1428 8.29946 38.1508 8.29946 37.0223Z" fill="#FF4756"/>
<path d="M21.7982 30.2615C21.7982 29.133 22.3796 28.141 23.2585 27.5665C22.7532 27.2362 22.1497 27.0435 21.501 27.0435C19.7238 27.0435 18.2832 28.4841 18.2832 30.2613C18.2832 32.0385 19.7238 33.4791 21.501 33.4791C22.1497 33.4791 22.7532 33.2865 23.2585 32.9562C22.3796 32.382 21.7982 31.3899 21.7982 30.2615Z" fill="#FF9839"/>
<path d="M35.2973 16.7397C35.2973 15.6112 35.8786 14.6192 36.7576 14.0447C36.2522 13.7144 35.6488 13.5217 35 13.5217C33.2228 13.5217 31.7822 14.9623 31.7822 16.7395C31.7822 18.5167 33.223 19.9574 35 19.9574C35.6488 19.9574 36.2522 19.7647 36.7576 19.4344C35.8786 18.8602 35.2973 17.868 35.2973 16.7397Z" fill="#FFD301"/>
<path d="M48.7962 23.5006C48.7962 22.3721 49.3775 21.3801 50.2565 20.8056C49.7511 20.4753 49.1477 20.2827 48.4989 20.2827C46.7217 20.2827 45.2811 21.7233 45.2811 23.5005C45.2811 25.2777 46.7219 26.7183 48.4989 26.7183C49.1477 26.7183 49.7511 26.5256 50.2565 26.1953C49.3774 25.6211 48.7962 24.6289 48.7962 23.5006Z" fill="#00BA66"/>
<path d="M62.2949 3.21781C62.2949 2.08934 62.8763 1.0973 63.7552 0.522812C63.2499 0.192637 62.6464 0 61.9977 0C60.2205 0 58.7799 1.44061 58.7799 3.21781C58.7799 4.99502 60.2206 6.43562 61.9977 6.43562C62.6464 6.43562 63.2499 6.24299 63.7552 5.91268C62.8763 5.33832 62.2949 4.34629 62.2949 3.21781Z" fill="#0193FA"/>
<path d="M11.4824 48.933H4.52207C4.04137 48.933 3.65186 49.3226 3.65186 49.8032V68.9593H12.3528V49.8033C12.3526 49.3228 11.963 48.933 11.4824 48.933Z" fill="#FF656F"/>
<path d="M24.9812 42.1721H18.0208C17.5401 42.1721 17.1506 42.5618 17.1506 43.0423V68.9593H25.8516V43.0425C25.8516 42.5618 25.4619 42.1721 24.9812 42.1721Z" fill="#FFA85D"/>
<path d="M38.4802 28.5914H31.5199C31.0392 28.5914 30.6497 28.9811 30.6497 29.4616V68.9594H39.3506V29.4616C39.3504 28.9811 38.9608 28.5914 38.4802 28.5914Z" fill="#FEE55A"/>
<path d="M51.9791 35.4113H45.0188C44.5382 35.4113 44.1486 35.8009 44.1486 36.2815V68.9593H52.8495V36.2815C52.8493 35.8009 52.4597 35.4113 51.9791 35.4113Z" fill="#43CB8E"/>
<path d="M65.4779 15.0334H58.5176C58.0369 15.0334 57.6473 15.4231 57.6473 15.9037V68.9593H66.3483V15.9038C66.3483 15.4231 65.9586 15.0334 65.4779 15.0334Z" fill="#23A8FE"/>
<path d="M9.86928 48.933H4.52207C4.04137 48.933 3.65186 49.3226 3.65186 49.8032V68.9593H8.9992V49.8033C8.99906 49.3228 9.38871 48.933 9.86928 48.933Z" fill="#FF4756"/>
<path d="M23.3682 42.1721H18.0208C17.5401 42.1721 17.1506 42.5618 17.1506 43.0423V68.9593H22.498V43.0425C22.498 42.5618 22.8875 42.1721 23.3682 42.1721Z" fill="#FF9839"/>
<path d="M36.8672 28.5914H31.5199C31.0392 28.5914 30.6497 28.9811 30.6497 29.4616V68.9594H35.997V29.4616C35.9969 28.9811 36.3865 28.5914 36.8672 28.5914Z" fill="#FFD301"/>
<path d="M50.366 35.4113H45.0188C44.5382 35.4113 44.1486 35.8009 44.1486 36.2815V68.9593H49.4959V36.2815C49.4958 35.8009 49.8854 35.4113 50.366 35.4113Z" fill="#00BA66"/>
<path d="M63.8649 15.0334H58.5176C58.0369 15.0334 57.6473 15.4231 57.6473 15.9037V68.9593H62.9947V15.9038C62.9947 15.4231 63.3843 15.0334 63.8649 15.0334Z" fill="#0193FA"/>
<path d="M68.6767 70H1.32328C0.748516 70 0.282715 69.5342 0.282715 68.9593C0.282715 68.3844 0.748652 67.9187 1.32328 67.9187H68.6767C69.2514 67.9187 69.7172 68.3845 69.7172 68.9593C69.7172 69.534 69.2514 70 68.6767 70Z" fill="#23A8FE"/>
</g>
</g>
<defs>
<clipPath id="clip0_14_13">
<rect width="70" height="70" fill="white"/>
</clipPath>
<clipPath id="clip1_14_13">
<rect width="70" height="70" fill="white"/>
</clipPath>
</defs>
</svg>
