<svg width="480" height="481" viewBox="0 0 480 481" fill="none" xmlns="http://www.w3.org/2000/svg">
<path d="M393.754 160.9H230.246L238.246 128.9H385.754L393.754 160.9ZM397.754 176.9L407.754 216.9H225.874C223.607 214.37 220.832 212.346 217.73 210.962L226.246 176.9H397.754ZM326.52 344.9H282C281.47 344.9 280.961 344.689 280.586 344.314C280.211 343.939 280 343.43 280 342.9V322.9C280 322.369 280.211 321.861 280.586 321.486C280.961 321.111 281.47 320.9 282 320.9H320.391C323.246 328.67 325.3 336.712 326.52 344.9ZM342.676 344.9C339.326 319.727 329.113 295.961 313.155 276.206C297.197 256.451 276.11 241.468 252.204 232.9H411.754L439.754 344.9H342.676ZM208 224.9C210.121 224.902 212.154 225.746 213.654 227.246C215.154 228.745 215.998 230.779 216 232.9V374.4L193.853 369.127C192.635 368.837 191.365 368.837 190.147 369.127L168 374.4V232.9C168.002 230.779 168.846 228.745 170.346 227.246C171.846 225.746 173.879 224.902 176 224.9H208ZM232 243.717C249.124 247.498 265.234 254.919 279.238 265.476C293.241 276.033 304.809 289.478 313.158 304.9H282C277.228 304.905 272.653 306.804 269.278 310.178C265.904 313.553 264.006 318.128 264 322.9V342.9C264.005 347.672 265.903 352.247 269.278 355.622C272.652 358.996 277.228 360.895 282 360.9H328.628L334.054 402.5L232 378.205V243.717ZM367.445 413.978C366.973 412.778 366.218 411.709 365.245 410.864C364.271 410.018 363.107 409.421 361.853 409.122L350.706 406.468L344.763 360.9H443.754L461.754 432.9H358.948L366.656 421.338C367.371 420.265 367.816 419.036 367.953 417.755C368.09 416.473 367.916 415.178 367.445 413.978ZM270.246 0.899902H353.754L381.754 112.9H242.246L270.246 0.899902ZM212.239 166.96L207.7 185.129L179.979 137.115L226.405 110.315L212.239 166.96ZM98.639 165.597L79.982 160.597C78.7576 160.269 77.4729 160.237 76.2336 160.503C74.9943 160.769 73.836 161.326 72.854 162.127C71.8721 162.928 71.0946 163.952 70.5857 165.113C70.0768 166.274 69.8511 167.539 69.927 168.804L70.7 181.73L49 194.258C48.5406 194.523 47.9947 194.595 47.4824 194.458C46.9701 194.32 46.5332 193.985 46.268 193.526L16.268 141.564C16.0031 141.105 15.9314 140.559 16.0687 140.047C16.2059 139.535 16.5409 139.098 17 138.833L38.7 126.305L49.5 133.437C50.5579 134.135 51.7667 134.573 53.0267 134.712C54.2867 134.852 55.5618 134.69 56.7471 134.241C57.9323 133.791 58.9937 133.066 59.8437 132.125C60.6937 131.185 61.308 130.055 61.636 128.831L66.636 110.176L156.836 58.0969L222.1 94.3229L98.639 165.597ZM166.123 145.11L202.123 207.454L201.761 208.9H176C171.657 208.903 167.396 210.084 163.67 212.316C159.945 214.549 156.894 217.749 154.843 221.578L124.551 169.111L166.123 145.11ZM63.617 320.9H102C102.53 320.9 103.039 321.111 103.414 321.486C103.789 321.861 104 322.369 104 322.9V342.9C104 343.43 103.789 343.939 103.414 344.314C103.039 344.689 102.53 344.9 102 344.9H57.48C58.7008 336.711 60.7572 328.669 63.617 320.9ZM55.372 360.9H102C106.772 360.895 111.348 358.996 114.722 355.622C118.097 352.247 119.995 347.672 120 342.9V322.9C119.994 318.128 118.096 313.553 114.722 310.178C111.347 306.804 106.772 304.905 102 304.9H70.86C79.2136 289.486 90.7814 276.046 104.78 265.492C118.779 254.937 134.883 247.513 152 243.722V378.205L49.946 402.5L55.372 360.9ZM37.029 422.026L192 385.128L346.971 422.028L339.719 432.9H44.281L37.029 422.026ZM0 448.9H480V480.9H0V448.9Z" fill="url(#paint0_linear_51_138)"/>
<defs>
<linearGradient id="paint0_linear_51_138" x1="240" y1="-9.5141" x2="240" y2="479.664" gradientUnits="userSpaceOnUse">
<stop stop-color="#FF80C9"/>
<stop offset="0.196" stop-color="#F67BCF"/>
<stop offset="0.514" stop-color="#DE6FDF"/>
<stop offset="0.915" stop-color="#B65AF9"/>
<stop offset="1" stop-color="#AD55FF"/>
</linearGradient>
</defs>
</svg>
